<svg width="94" height="314" viewBox="0 0 94 314" fill="none" xmlns="http://www.w3.org/2000/svg">
<path d="M0.500308 311.97C0.48353 312.798 1.14136 313.483 1.96962 313.5L15.4669 313.773C16.2951 313.79 16.9801 313.132 16.9969 312.304C17.0137 311.476 16.3559 310.79 15.5276 310.774L3.53007 310.531L3.7731 298.533C3.78988 297.705 3.13204 297.02 2.30378 297.003C1.47553 296.986 0.79049 297.644 0.773713 298.472L0.500308 311.97ZM29.8625 0.0221705C23.5274 7.39156 20.8396 14.9295 20.9006 22.551C20.9613 30.1287 23.7377 37.6358 28.0472 44.9903C36.6292 59.636 51.6308 74.1963 64.6868 88.0634C71.2541 95.0387 77.347 101.851 82.0164 108.486C86.6946 115.135 89.8544 121.483 90.6971 127.528C91.5285 133.491 90.1215 139.266 85.4283 144.907C80.6858 150.608 72.5464 156.217 59.8363 161.62L61.0099 164.38C73.9281 158.89 82.559 153.047 87.7346 146.826C92.9595 140.545 94.6182 133.927 93.6684 127.114C92.7298 120.381 89.2615 113.569 84.4699 106.76C79.6696 99.9382 73.4511 92.9958 66.871 86.0069C53.6321 71.9456 38.9943 57.7383 30.6355 43.4736C26.4747 36.3728 23.9554 29.389 23.9005 22.527C23.8459 15.7088 26.2226 8.85844 32.1375 1.97783L29.8625 0.0221705ZM59.8363 161.62C34.0455 172.582 20.2691 184.604 13.5654 197.392C6.85715 210.189 7.38413 223.47 9.54831 236.551C10.6252 243.06 12.138 249.671 13.3803 256.082C14.6325 262.545 15.6323 268.902 15.7544 275.15C15.9969 287.562 12.7823 299.566 0.961038 310.918L3.03896 313.082C15.563 301.055 19.0098 288.192 18.7538 275.091C18.6266 268.582 17.5871 262.022 16.3255 255.511C15.054 248.95 13.5785 242.531 12.5081 236.061C10.3776 223.184 9.97377 210.705 16.2225 198.785C22.4759 186.856 35.5442 175.205 61.0099 164.38L59.8363 161.62Z" fill="#23AECD"/>
</svg>
