<svg width="213" height="185" viewBox="0 0 213 185" fill="none" xmlns="http://www.w3.org/2000/svg">
<path d="M199.783 0.720549C199.076 0.28814 198.153 0.510432 197.721 1.21705L190.674 12.7321C190.242 13.4387 190.464 14.3621 191.171 14.7945C191.877 15.2269 192.801 15.0046 193.233 14.298L199.497 4.0624L209.732 10.326C210.439 10.7584 211.362 10.5361 211.795 9.82947C212.227 9.12285 212.005 8.19948 211.298 7.76707L199.783 0.720549ZM35.9997 184C37.1661 183.057 37.166 183.057 37.1656 183.056C37.1651 183.056 37.1644 183.055 37.1634 183.054C37.1613 183.051 37.1581 183.047 37.1538 183.042C37.1451 183.031 37.1319 183.014 37.1142 182.992C37.079 182.949 37.026 182.883 36.9563 182.795C36.8169 182.621 36.6102 182.36 36.3434 182.021C35.8097 181.343 35.0351 180.35 34.0754 179.091C32.1556 176.572 29.4964 172.996 26.5419 168.766C20.6226 160.292 13.5594 149.256 8.86635 138.882C6.51855 133.692 4.794 128.732 4.08153 124.383C3.36518 120.009 3.70439 116.455 5.22699 113.891C6.7069 111.398 9.48762 109.542 14.3674 108.926C19.2886 108.304 26.1999 108.972 35.618 111.451L36.3815 108.549C26.7996 106.028 19.4608 105.258 13.9914 105.949C8.48057 106.645 4.73002 108.852 2.64743 112.359C0.607515 115.795 0.352966 120.178 1.12098 124.867C1.89288 129.58 3.73083 134.808 6.13303 140.118C10.9399 150.744 18.1268 161.958 24.0825 170.484C27.0655 174.754 29.75 178.365 31.6896 180.909C32.6596 182.182 33.4436 183.188 33.9861 183.877C34.2573 184.222 34.4681 184.487 34.6117 184.667C34.6834 184.757 34.7383 184.825 34.7756 184.871C34.7942 184.895 34.8083 184.912 34.818 184.924C34.8228 184.93 34.8265 184.935 34.8291 184.938C34.8303 184.939 34.8314 184.941 34.832 184.942C34.8328 184.943 34.8332 184.943 35.9997 184ZM35.618 111.451C45.2772 113.993 53.0528 114.251 59.3996 112.751C65.7722 111.244 70.5989 107.988 74.3761 103.694C78.1321 99.4234 80.8338 94.1463 83.0276 88.5963C85.218 83.0552 86.9445 77.125 88.6814 71.5729C90.4325 65.9757 92.1945 60.761 94.4741 56.4536C96.7497 52.1538 99.4691 48.8996 103.056 47.0707C106.618 45.2549 111.257 44.7321 117.609 46.3353C123.987 47.9448 132.002 51.6779 142.186 58.2598L143.814 55.7402C133.498 49.0721 125.169 45.1489 118.344 43.4265C111.493 41.6976 106.07 42.167 101.694 44.398C97.3432 46.616 94.2501 50.4634 91.8225 55.0503C89.399 59.6296 87.5672 65.0868 85.8183 70.6771C84.0552 76.3125 82.3754 82.0855 80.2377 87.4935C78.1034 92.8928 75.555 97.811 72.1235 101.712C68.7132 105.59 64.4149 108.482 58.7094 109.831C52.978 111.186 45.7223 111.007 36.3815 108.549L35.618 111.451ZM142.186 58.2598C162.744 71.5474 176.998 75.075 186.767 72.2048C196.695 69.2876 201.318 60.0092 203.225 49.6465C205.142 39.2329 204.432 27.2088 203.27 17.8617C202.687 13.1732 201.986 9.12762 201.43 6.25245C201.152 4.81443 200.91 3.66802 200.737 2.87903C200.651 2.48451 200.582 2.17927 200.534 1.97153C200.51 1.86766 200.491 1.78816 200.479 1.73405C200.472 1.70699 200.467 1.68629 200.464 1.67205C200.462 1.66494 200.461 1.65944 200.46 1.65558C200.459 1.65365 200.459 1.65198 200.459 1.65102C200.459 1.64976 200.458 1.64892 199 2C197.542 2.35108 197.542 2.35106 197.542 2.35145C197.542 2.35213 197.542 2.35292 197.542 2.35427C197.543 2.35697 197.544 2.3613 197.546 2.36724C197.548 2.37912 197.553 2.39745 197.559 2.4221C197.57 2.47141 197.588 2.546 197.61 2.64486C197.656 2.84258 197.723 3.13731 197.807 3.52087C197.975 4.28804 198.211 5.41018 198.484 6.82177C199.03 9.64582 199.72 13.6237 200.293 18.232C201.443 27.4787 202.108 39.1421 200.275 49.1035C198.432 59.1158 194.18 66.8999 185.921 69.3265C177.502 71.8 164.256 68.9526 143.814 55.7402L142.186 58.2598Z" fill="#B55694"/>
</svg>
