<svg width="60" height="60" viewBox="0 0 60 60" fill="none" xmlns="http://www.w3.org/2000/svg">
<path d="M30 14.2181C13.4316 14.2181 0 21.2845 0 30C0 38.7155 13.4316 45.7819 30 45.7819C46.568 45.7819 60 38.7155 60 30C60 21.2845 46.5684 14.2181 30 14.2181ZM27.1959 18.8166H30.6145V18.818L29.7966 23.0217H32.8416C34.7573 23.0217 36.0797 23.3564 36.8062 24.0244C37.5342 24.6933 37.7517 25.7761 37.4616 27.2728L36.0305 34.6322H32.558L33.9183 27.6342C34.073 26.8383 34.0158 26.296 33.7472 26.0063C33.4786 25.717 32.9067 25.5727 32.0325 25.5727H29.3006L27.54 34.6313H24.1223L27.1959 18.8166ZM12.5297 23.0222H19.1545C21.1477 23.0222 22.6022 23.5453 23.5163 24.5916C24.4303 25.6378 24.705 27.0975 24.3403 28.9725C24.1903 29.7455 23.9358 30.451 23.5786 31.0913C23.2209 31.7306 22.7536 32.3161 22.177 32.8467C21.4889 33.4903 20.7248 33.9497 19.8844 34.223C19.0434 34.4972 17.9719 34.6331 16.6697 34.6331H13.7194L12.9014 38.8378H9.45609L12.5297 23.0222ZM39.42 23.0222H46.0434C48.0366 23.0222 49.4902 23.5453 50.4042 24.5916H50.4052C51.3192 25.6378 51.5948 27.0975 51.2302 28.9725C51.0802 29.7455 50.8266 30.451 50.4694 31.0913C50.1117 31.7306 49.6444 32.3161 49.0669 32.8467C48.3792 33.4903 47.6147 33.9497 46.7733 34.223C45.9323 34.4972 44.8622 34.6331 43.56 34.6331H40.6092L39.7917 38.8378H36.3464L39.42 23.0222ZM15.4898 25.5183L14.2045 32.137H16.2989C17.6878 32.137 18.7233 31.8764 19.403 31.3528C20.0827 30.8297 20.5411 29.9555 20.7797 28.7316C21.007 27.5564 20.9034 26.7258 20.4675 26.243C20.0316 25.7592 19.1597 25.5178 17.85 25.5178L15.4898 25.5183ZM42.3787 25.5183L41.0925 32.137H43.1878C44.5777 32.137 45.6112 31.8764 46.2919 31.3528C46.9711 30.8297 47.4295 29.9555 47.6677 28.7316C47.8959 27.5564 47.7923 26.7258 47.3564 26.243C46.9205 25.7592 46.0477 25.5178 44.7389 25.5178L42.3787 25.5183Z" fill="#F5F5F5"/>
</svg>
