<svg width="60" height="60" viewBox="0 0 60 60" fill="none" xmlns="http://www.w3.org/2000/svg">
<g clip-path="url(#clip0_137_1811)">
<path d="M55.1663 46.051C51.8977 45.9615 49.4021 46.2671 47.2669 47.1661C46.6608 47.4225 45.6943 47.4282 45.5954 48.188C45.9286 48.5377 45.9797 49.0594 46.2455 49.4897C46.7546 50.3119 47.6152 51.4177 48.3826 51.9985C49.2211 52.6304 50.0855 53.3077 50.9846 53.8552C52.5849 54.8311 54.3704 55.388 55.9083 56.364C56.8168 56.9405 57.7172 57.6657 58.6036 58.3158C59.0415 58.6365 59.3363 59.1361 59.9035 59.3377V59.2463C59.6049 58.8657 59.528 58.3416 59.2533 57.9446L58.0449 56.7361C56.8637 55.1686 55.3641 53.7919 53.7713 52.6491C52.5005 51.7355 49.6552 50.5032 49.126 49.0257L49.0327 48.9324C49.9336 48.8297 50.9883 48.504 51.8213 48.2804C53.2182 47.9068 54.4674 48.0038 55.9083 47.6302L57.8602 47.0738V46.7021C57.1313 45.9549 56.6115 44.9644 55.8169 44.2871C53.7352 42.5147 51.4646 40.7457 49.1265 39.27C47.8299 38.4516 46.2277 37.9186 44.8529 37.2249C44.3897 36.9924 43.5783 36.8696 43.2727 36.4815C42.5513 35.5622 42.1576 34.396 41.6012 33.323C40.4349 31.0763 39.2902 28.6247 38.2557 26.2608C37.5507 24.6497 37.0913 23.0602 36.2124 21.6155C31.9936 14.6794 27.4529 10.4921 20.4179 6.37739C18.9202 5.50223 17.1183 5.1563 15.2138 4.70395L12.1468 4.5188C11.5224 4.25864 10.8741 3.49505 10.2882 3.12333C7.95802 1.65005 1.97959 -1.55245 0.25271 2.6588C-0.836665 5.31567 1.88255 7.90833 2.85474 9.25599C3.53771 10.1991 4.41099 11.259 4.89802 12.3211C5.22052 13.0205 5.27537 13.7199 5.55005 14.4582C6.22412 16.2783 6.81333 18.2593 7.68708 19.9402C8.12818 20.7915 8.61521 21.6872 9.17396 22.449C9.51474 22.9158 10.1021 23.123 10.1958 23.8425C9.62068 24.6465 9.58787 25.8933 9.26583 26.9096C7.81365 31.4893 8.36302 37.1799 10.4743 40.5675C11.1226 41.6096 12.6497 43.8394 14.7479 42.9844C16.5844 42.2354 16.1743 39.9193 16.6997 37.8741C16.8188 37.411 16.7457 37.0702 16.9782 36.759V36.8522L18.6516 40.1958C19.8896 42.1899 22.0847 44.2735 23.9471 45.6797C24.9122 46.4086 25.6721 47.6682 26.9208 48.0947V48.0015H26.8276C26.5857 47.6241 26.2069 47.4685 25.8994 47.1666C25.1724 46.4527 24.3633 45.5663 23.7624 44.7497C22.0688 42.4519 20.5726 39.9357 19.2104 37.3177C18.5583 36.0671 17.9926 34.6885 17.4432 33.4158C17.2308 32.925 17.2346 32.1816 16.793 31.929C16.1926 32.8608 15.3061 33.6155 14.8411 34.7157C14.0996 36.4754 14.0026 38.6232 13.7279 40.8479C13.5647 40.9065 13.6365 40.8661 13.5413 40.9411C12.2466 40.628 11.7929 39.2968 11.311 38.1525C10.0951 35.2632 9.86818 30.6104 10.9393 27.2818C11.2158 26.4211 12.4683 23.7113 11.9611 22.9149C11.7193 22.1222 10.921 21.6624 10.4743 21.0563C9.92115 20.3072 9.37037 19.3205 8.9874 18.4543C7.9913 16.2019 7.52818 13.6716 6.47865 11.394C5.97709 10.3046 5.13099 9.20208 4.43537 8.23552C3.66427 7.16255 2.80224 6.3713 2.20505 5.0752C1.99271 4.61395 1.70537 3.87567 2.01849 3.40364C2.11927 3.08302 2.26037 2.94942 2.57677 2.84536C3.1149 2.42958 4.61677 2.98458 5.17693 3.21708C6.66755 3.83583 7.91068 4.42552 9.17396 5.26223C9.77818 5.66302 10.3918 6.43973 11.124 6.65583H11.9607C13.268 6.9563 14.7329 6.74723 15.9558 7.11895C18.1163 7.77614 20.0518 8.79802 21.8096 9.90755C27.1636 13.2896 31.5436 18.1013 34.539 23.8454C35.0204 24.7702 35.2294 25.651 35.6541 26.6321C36.5091 28.6097 37.5877 30.6441 38.439 32.5796C39.2902 34.5075 40.118 36.4561 41.3208 38.0616C41.9527 38.9058 44.3916 39.3582 45.5011 39.8269C46.2793 40.1546 47.5538 40.4972 48.2897 40.9421C49.696 41.79 51.0582 42.8007 52.3786 43.7288C53.0358 44.1938 55.0646 45.2138 55.1654 46.0524L55.1663 46.051ZM13.6327 10.651C12.9516 10.6383 12.4702 10.7241 11.9611 10.8361V10.9294H12.0526C12.3783 11.596 12.9516 12.0263 13.3543 12.601L14.2824 14.5529L14.3757 14.4615C14.9508 14.055 15.2143 13.4068 15.2105 12.4163C14.9799 12.1725 14.9471 11.8707 14.7455 11.5796C14.4821 11.1933 13.9674 10.9754 13.6322 10.6515L13.6327 10.651Z" fill="#F5F5F5"/>
</g>
<defs>
<clipPath id="clip0_137_1811">
<rect width="60" height="60" fill="white"/>
</clipPath>
</defs>
</svg>
