<svg width="60" height="60" viewBox="0 0 60 60" fill="none" xmlns="http://www.w3.org/2000/svg">
<g clip-path="url(#clip0_139_240)">
<path d="M30.0668 48.2622H18.3933V36.8077H30.0668V48.2622ZM18.3933 57.2494H9.54994V48.2622L18.3933 48.2622V57.2494ZM9.54994 48.2622H2.12348V40.8597H9.54994V48.2622ZM29.8906 59.8934V48.2622C42.2706 48.2622 51.8206 36.1031 47.0456 23.2364C45.2763 18.4783 41.564 14.6025 36.611 12.8389C23.8768 8.25841 11.6735 17.7736 11.6735 29.9333H0C0 10.5486 18.9238 -4.78404 39.6186 1.56007C48.6386 4.38068 55.7128 11.4295 58.5423 20.4176C64.9085 41.0359 49.5209 59.8934 29.8906 59.8934Z" fill="white"/>
</g>
<defs>
<clipPath id="clip0_139_240">
<rect width="60" height="60" fill="white"/>
</clipPath>
</defs>
</svg>
