<svg width="60" height="60" viewBox="0 0 60 60" fill="none" xmlns="http://www.w3.org/2000/svg">
<g clip-path="url(#clip0_137_1839)">
<path fill-rule="evenodd" clip-rule="evenodd" d="M30.044 59.1676C46.1104 59.1432 59.1164 46.074 59.1164 29.9527C59.1164 14.0935 46.1704 1.03224 30.704 0.756151C14.4609 0.466463 0.887765 13.6468 0.883546 29.6297C0.878859 46.073 13.8267 59.191 30.044 59.1676ZM29.9967 2.17037C45.4218 2.16521 57.712 14.6977 57.7073 30.4266C57.7021 45.2762 45.0862 57.6985 30.0079 57.7018C14.6465 57.7051 2.29308 45.2504 2.29355 29.7605C2.29448 14.6701 14.8401 2.17553 29.9967 2.17037ZM18.3548 16.8263C18.607 17.6668 17.901 17.9593 17.1506 18.0179C16.3607 18.0788 15.5714 18.1383 14.6545 18.2082C17.6807 27.2241 20.6615 36.1065 23.7131 45.1955C23.9306 44.8397 24.0201 44.7394 24.0595 44.6222C25.7348 39.6151 27.4195 34.6111 29.0521 29.5899C29.2012 29.1319 29.1271 28.5254 28.964 28.0547C28.1001 25.561 27.0651 23.1216 26.3076 20.5979C25.7896 18.8701 25.1025 17.7521 23.0601 17.9522C22.7123 17.9865 22.2876 17.2379 21.8981 16.8512C22.3692 16.5699 22.837 16.0524 23.3123 16.0454C27.4711 15.9815 31.6307 15.9827 35.7895 16.0491C36.2667 16.0571 36.7345 16.5882 37.2056 16.8765C36.7931 17.2533 36.4373 17.8187 35.955 17.9644C35.181 18.1979 34.3228 18.1538 33.3965 18.2363L42.4664 45.2176C43.8403 40.6538 45.1185 36.4632 46.3617 32.2618C47.4707 28.5113 46.8098 25.0088 44.8045 21.7055C44.2017 20.7122 43.461 19.7485 43.1193 18.6652C42.7312 17.4329 42.4087 16.0299 42.6145 14.7938C42.9637 12.699 44.571 11.6588 46.746 11.4596C34.8435 0.413026 16.1395 4.3674 9.24745 16.3697C11.9006 16.2474 14.4337 16.0866 16.9687 16.0519C17.4478 16.0458 18.2423 16.4508 18.3548 16.8263ZM23.0971 53.3752C23.0418 53.5369 23.0385 53.7169 22.995 53.9855C28.1245 55.4077 33.1551 55.3051 38.3039 53.5702L30.4382 32.0265C27.921 39.3441 25.507 46.3585 23.0971 53.3752ZM19.1334 52.4011L7.28292 19.8933C1.93683 30.3361 6.0037 46.269 19.1334 52.4011ZM54.959 31.5127C55.335 26.5749 53.6315 19.7382 52.1606 18.7979C51.9965 20.6143 52.1109 22.6351 51.5896 24.4763C50.3629 28.8146 48.8629 33.0774 47.4182 37.3519C45.8479 41.9982 44.2157 46.6233 42.6103 51.2579C50.1534 46.7865 54.2985 40.1869 54.959 31.5127Z" fill="#F5F5F5"/>
</g>
<defs>
<clipPath id="clip0_137_1839">
<rect width="60" height="60" fill="white"/>
</clipPath>
</defs>
</svg>
