<svg width="300" height="400" viewBox="0 0 300 400" fill="none" xmlns="http://www.w3.org/2000/svg">
<g clip-path="url(#clip0_1048_331)">
<path fill-rule="evenodd" clip-rule="evenodd" d="M201.134 138.403L201.835 8.11153L184.323 3.14322C184.323 3.14322 106.972 10.2408 69.0463 16.6286C31.0209 23.1179 5.10364 29.5057 5.10364 29.5057C5.10364 29.5057 -3.00176 92.8771 1.20104 133.435C5.40384 173.992 17.712 207.452 17.712 207.452L33.4225 208.162C66.2444 199.138 148.699 176.122 201.134 138.403Z" fill="#DFDFDF"/>
<path fill-rule="evenodd" clip-rule="evenodd" d="M201.134 138.403L201.835 8.11153L184.323 3.14322C184.323 3.14322 169.213 4.56274 149 6.69202L62.542 199.848C102.168 187.883 160.607 167.503 201.134 138.403Z" fill="#CCCCCC"/>
<path fill-rule="evenodd" clip-rule="evenodd" d="M74.25 74.0177L76.2513 150.875L143.696 129.48L141.195 60.8365C141.195 60.8365 74.9505 73.308 74.25 74.0177Z" fill="white"/>
<path fill-rule="evenodd" clip-rule="evenodd" d="M85.8574 147.833L143.696 129.48L141.194 60.8365C141.194 60.8365 133.489 62.256 123.182 64.2839L85.8574 147.833Z" fill="#F5F5F5"/>
<path fill-rule="evenodd" clip-rule="evenodd" d="M201.435 8.01014L184.223 3.14322C184.223 3.14322 106.871 10.2408 68.9462 16.6286C31.0209 23.1179 5.10364 29.5057 5.10364 29.5057C5.10364 29.5057 -3.00176 92.8771 1.20104 133.435C5.40384 173.992 17.712 207.452 17.712 207.452L33.4225 208.162H33.6227C32.2217 203.904 20.5139 166.591 16.9115 132.015C13.0089 95.3105 18.6126 36.1977 18.6126 36.1977C18.6126 36.1977 147.899 9.73384 201.435 8.01014Z" fill="#626262"/>
<path fill-rule="evenodd" clip-rule="evenodd" d="M5.30383 29.4043H5.1037C5.1037 29.4043 -3.00171 92.7757 1.30116 133.333C5.50397 173.891 17.8122 207.351 17.8122 207.351L33.5226 208.061H33.7228C32.3218 203.802 20.614 166.489 17.0116 131.914C13.009 95.3105 18.6127 36.1977 18.6127 36.1977L19.013 36.0963L5.30383 29.4043Z" fill="#626262"/>
<path fill-rule="evenodd" clip-rule="evenodd" d="M94.1631 88.9227L100.167 87.6046V122.484L94.1631 123.802V88.9227ZM119.08 83.0418L125.084 81.7237V116.603L119.08 117.921V83.0418Z" fill="#4D4D4D"/>
<path d="M273.083 204.715C270.081 202.586 269.38 198.53 271.382 195.488C273.483 192.446 277.486 191.736 280.488 193.764C280.588 193.866 314.11 216.781 292.996 251.66C285.191 264.436 274.784 272.041 265.378 278.834C253.87 287.148 244.364 294.043 247.466 309.556C250.267 323.447 262.175 331.66 272.582 338.961C285.791 348.188 297.199 356.096 293.797 372.218C293.196 374.854 292.396 377.288 291.195 379.417C285.991 389.354 275.584 395.133 264.377 397.871C253.87 400.507 242.662 400.406 235.157 398.783C232.556 398.175 230.254 397.465 228.453 396.451C225.251 394.728 223.95 390.672 225.751 387.427C227.452 384.183 231.455 382.864 234.657 384.588C235.458 384.994 236.558 385.399 238.059 385.703C243.963 387.022 252.969 386.92 261.375 384.892C269.28 382.966 276.485 379.214 279.587 373.232C280.187 372.015 280.688 370.798 280.988 369.379C282.589 361.977 274.484 356.299 265.177 349.911C252.669 341.191 238.56 331.356 234.657 312.193C229.754 288.264 242.462 279.037 257.772 267.883C266.078 261.901 275.384 255.209 281.789 244.563C296.298 220.735 273.083 204.816 273.083 204.715Z" fill="#626262"/>
<path fill-rule="evenodd" clip-rule="evenodd" d="M150.701 155.539L182.823 166.185V181.8L150.701 171.153V155.539Z" fill="#DFDFDF"/>
<path fill-rule="evenodd" clip-rule="evenodd" d="M150.701 155.437L155.304 154.018L185.825 163.752L186.125 180.482L182.823 181.901L182.723 181.8V166.286L150.901 155.741C150.801 155.539 150.701 155.437 150.701 155.437Z" fill="#626262"/>
<path fill-rule="evenodd" clip-rule="evenodd" d="M178.62 134.043L210.742 144.689V160.304L178.62 149.658V134.043Z" fill="#DFDFDF"/>
<path fill-rule="evenodd" clip-rule="evenodd" d="M178.62 133.942L183.223 132.421L213.744 142.155L214.044 158.885L210.742 160.304L210.641 160.203V144.689L178.82 134.144C178.72 134.043 178.62 133.942 178.62 133.942Z" fill="#626262"/>
<path fill-rule="evenodd" clip-rule="evenodd" d="M163.81 165.881L212.643 134.246C212.643 134.246 257.873 148.948 259.274 152.902C260.675 156.857 260.675 180.279 259.874 186.869C259.073 193.359 242.262 204.106 242.262 204.106L211.242 204.918L167.212 190.52C167.212 190.418 161.909 180.279 163.81 165.881Z" fill="#363C4A"/>
<path fill-rule="evenodd" clip-rule="evenodd" d="M259.474 153.714C260.675 159.392 260.575 180.684 259.774 186.768C258.974 193.257 242.162 204.005 242.162 204.005L211.442 204.816L211.142 183.118L259.474 153.714Z" fill="black"/>
<path fill-rule="evenodd" clip-rule="evenodd" d="M260.375 173.08C260.375 178.859 260.174 184.233 259.774 186.768C258.974 193.257 242.162 204.005 242.162 204.005L211.142 204.816L167.112 190.418C167.112 190.418 161.909 180.482 163.71 166.388C171.215 169.531 199.634 181.191 209.04 182.915C219.948 184.943 238.66 188.289 238.66 188.289L260.375 173.08Z" fill="black"/>
<path fill-rule="evenodd" clip-rule="evenodd" d="M260.374 173.08C260.374 178.859 260.174 184.233 259.774 186.768C258.974 193.257 242.162 204.005 242.162 204.005L211.442 204.816L211.142 183.219C222.149 185.247 238.66 188.188 238.66 188.188L260.374 173.08Z" fill="#1C1B25"/>
<path fill-rule="evenodd" clip-rule="evenodd" d="M206.238 151.179C212.742 147.63 219.347 147.326 221.148 150.469C222.849 153.714 218.947 159.189 212.442 162.738C205.938 166.388 199.333 166.692 197.632 163.447C195.931 160.304 199.834 154.728 206.238 151.179Z" fill="black"/>
<path fill-rule="evenodd" clip-rule="evenodd" d="M239.361 203.397C236.659 199.544 237.76 189.404 238.76 187.174C239.761 184.943 256.072 171.052 260.175 172.167C260.975 172.37 263.977 173.79 265.578 174.804C272.483 179.366 284.991 190.215 284.791 193.866C284.491 198.428 276.285 210.798 271.983 210.292C268.18 209.886 241.863 206.946 239.361 203.397Z" fill="black"/>
<path fill-rule="evenodd" clip-rule="evenodd" d="M265.779 174.905C267.38 175.919 269.181 177.237 271.082 178.758C266.979 179.873 263.477 181.597 260.475 183.726C257.073 186.261 254.271 189.506 251.769 193.46C249.468 197.11 248.767 201.876 248.467 206.743C246.566 206.337 244.765 205.83 243.264 205.425C243.664 200.254 244.565 195.082 247.266 190.722C250.068 186.261 253.27 182.51 257.273 179.569C259.875 177.643 262.677 176.122 265.779 174.905ZM277.486 184.233C279.088 185.653 280.589 187.174 281.689 188.492C280.088 188.796 272.983 190.52 268.581 198.023C266.579 201.47 265.478 205.627 264.978 209.379C263.377 209.176 261.676 208.973 259.775 208.669C260.375 204.309 261.576 199.442 263.977 195.387C267.98 188.695 273.684 185.653 277.486 184.233Z" fill="#1C1B25"/>
<path fill-rule="evenodd" clip-rule="evenodd" d="M89.1602 206.033V236.046L102.269 233.815C102.269 233.815 89.4604 205.83 89.1602 206.033Z" fill="#B55694"/>
<path fill-rule="evenodd" clip-rule="evenodd" d="M72.1487 167.3L38.126 195.589L54.637 204.005C54.637 204.106 72.4489 168.213 72.1487 167.3Z" fill="#B55694"/>
<path fill-rule="evenodd" clip-rule="evenodd" d="M177.118 99.7719L210.34 53.9417L195.33 34.1698L264.176 0L230.154 44.4106L241.861 67.6299C241.761 67.5285 177.618 99.4677 177.118 99.7719Z" fill="#B55694"/>
</g>
<defs>
<clipPath id="clip0_1048_331">
<rect width="300" height="400" fill="white"/>
</clipPath>
</defs>
</svg>
