<svg width="35" height="75" viewBox="0 0 35 75" fill="none" xmlns="http://www.w3.org/2000/svg">
<path d="M8.87523 30.4789C1.96323 40.1048 4.23431 53.9421 14.7998 67.4785C15.491 64.4704 12.43 61.362 15.096 58.755C15.5897 58.8553 16.0834 58.755 16.1822 58.8553C18.157 63.1669 20.2306 67.4785 22.008 71.8904C22.6005 73.3944 21.8105 74.9988 20.0331 74.9988C16.3797 74.9988 12.6275 75.099 8.38151 73.4947C10.0601 72.1912 11.245 71.2888 12.035 70.6872C9.27019 66.4758 6.20916 62.5653 4.03682 58.2537C-1.29529 48.0261 -1.59151 37.5981 4.62928 27.5711C5.61671 25.9668 5.41923 24.7635 4.92552 23.1592C2.65443 16.3408 3.54311 9.8233 7.59157 3.90738C9.07271 1.80171 10.8501 -0.504503 14.7998 0.0971166C10.7513 3.00495 8.67773 6.51438 7.6903 10.7257C6.80162 14.8368 6.70287 18.9479 8.67773 22.7581C12.43 22.0562 15.9847 20.9533 19.5394 20.9533C23.0942 20.853 26.8464 21.4546 30.2037 22.5576C33.6597 23.6605 35.3383 26.9695 34.9433 30.0778C34.6471 33.1862 32.2773 35.5927 28.6238 36.2946C22.798 37.3975 17.2684 35.9938 12.2325 32.8854C11.1463 32.0832 9.9614 31.2811 8.87523 30.4789ZM11.7388 27.4708C16.4784 31.5819 21.4156 32.8854 26.8464 32.384C28.6238 32.1835 30.4011 31.6822 30.4999 29.4762C30.5986 27.5711 29.1175 26.6686 27.5376 26.2676C22.5017 24.7635 17.4658 25.0643 11.7388 27.4708Z" fill="url(#paint0_linear_139_272)"/>
<defs>
<linearGradient id="paint0_linear_139_272" x1="12.4946" y1="75" x2="13.5166" y2="-2.99943" gradientUnits="userSpaceOnUse">
<stop stop-color="#7C2681"/>
<stop offset="1" stop-color="#C33374"/>
</linearGradient>
</defs>
</svg>
