<svg width="50" height="60" viewBox="0 0 50 60" fill="none" xmlns="http://www.w3.org/2000/svg">
<path d="M22.7605 19.7736L22.4851 12.6764L22.2889 19.7763C22.0433 28.6582 15.2707 35.8272 6.78376 36.1879L0 36.476L6.7864 36.6812C15.276 36.9382 22.1284 44.0237 22.4732 52.9028L22.7486 60L22.9447 52.9C23.1904 44.0182 29.9629 36.8491 38.4499 36.4885L45.2337 36.2003L38.4472 35.9951C29.957 35.7374 23.1045 28.652 22.7605 19.7736Z" fill="#B55694"/>
<path d="M46.7817 11.0679C42.7519 10.9456 39.4994 7.58291 39.3362 3.36826L39.2055 0L39.1124 3.36965C38.9955 7.58567 35.7812 10.9885 31.7527 11.1591L28.5332 11.2959L31.754 11.3934C35.7839 11.515 39.0364 14.8784 39.1995 19.093L39.3303 22.462L39.4234 19.0923C39.5396 14.8763 42.7545 11.4735 46.783 11.3029L50.0026 11.166L46.7817 11.0679Z" fill="#B55694"/>
<path d="M5.76151 27.6094L5.83218 29.4286L5.88237 27.6087C5.94511 25.3314 7.68133 23.4936 9.85739 23.4017L11.5963 23.3278L9.85673 23.2753C7.68001 23.2096 5.92331 21.3932 5.83548 19.1166L5.76482 17.2974L5.71462 19.1173C5.65188 21.3945 3.91566 23.2324 1.7396 23.3243L0.000732422 23.3982L1.74026 23.4507C3.91632 23.5164 5.67302 25.3335 5.76151 27.6094Z" fill="#B55694"/>
</svg>
