<svg width="290" height="320" viewBox="0 0 290 320" fill="none" xmlns="http://www.w3.org/2000/svg">
<path d="M289.491 8.16147C289.58 7.33785 288.985 6.59789 288.161 6.50871L274.74 5.05542C273.916 4.96624 273.176 5.56161 273.087 6.38522C272.998 7.20884 273.593 7.9488 274.417 8.03798L286.347 9.3298L285.055 21.2601C284.966 22.0837 285.562 22.8236 286.385 22.9128C287.209 23.002 287.949 22.4066 288.038 21.583L289.491 8.16147ZM29.9999 199L29.0689 197.824L29.9999 199ZM43.0107 98.91C56.992 93.8478 68.0856 96.8663 77.5183 102.439C82.2655 105.244 86.5858 108.695 90.6462 112.12C94.6677 115.512 98.5002 118.939 102.128 121.532C105.749 124.121 109.411 126.068 113.171 126.297C117.047 126.532 120.73 124.933 124.315 121.094C127.856 117.301 131.384 111.245 135.077 102.333C138.779 93.3983 142.689 81.4875 146.947 65.8947L144.053 65.1044C139.811 80.6366 135.94 92.4134 132.306 101.184C128.663 109.977 125.3 115.643 122.122 119.046C118.989 122.402 116.125 123.471 113.353 123.302C110.464 123.127 107.376 121.597 103.872 119.092C100.375 116.591 96.7074 113.308 92.5804 109.827C88.4924 106.378 84.0159 102.794 79.0443 99.8566C69.0394 93.9453 57.0081 90.6513 41.9894 96.0892L43.0107 98.91ZM146.947 65.8947C155.417 34.8784 165.737 18.3122 176.881 10.1223C187.937 1.99596 200.095 1.91334 212.873 4.65385C219.274 6.02654 225.762 8.09264 232.306 10.1762C238.822 12.2508 245.396 14.3437 251.854 15.7096C264.793 18.4468 277.558 18.3266 288.94 9.16867L287.06 6.83131C276.692 15.1734 265.019 15.4281 252.474 12.7746C246.19 11.4451 239.76 9.40122 233.216 7.31757C226.699 5.24284 220.07 3.12917 213.502 1.72055C200.343 -1.10158 187.156 -1.15306 175.104 7.70493C163.138 16.4993 152.583 33.8706 144.053 65.1044L146.947 65.8947ZM41.9894 96.0892C34.6237 98.756 29.5021 101.819 26.1925 105.298C22.843 108.819 21.4057 112.71 21.3284 116.847C21.2523 120.922 22.4971 125.151 24.3354 129.417C26.1753 133.688 28.6705 138.126 31.1926 142.61C36.2945 151.68 41.4885 160.936 42.5566 170.234C43.085 174.833 42.5959 179.418 40.5686 183.981C38.5373 188.553 34.9226 193.19 29.0689 197.824L30.931 200.176C37.0772 195.31 41.0407 190.307 43.3102 185.199C45.5836 180.082 46.118 174.948 45.537 169.891C44.3865 159.876 38.8305 150.069 33.8074 141.139C31.267 136.623 28.856 132.327 27.0905 128.23C25.3233 124.129 24.2634 120.358 24.3279 116.903C24.3913 113.508 25.5399 110.337 28.3661 107.365C31.2323 104.352 35.8764 101.493 43.0107 98.91L41.9894 96.0892ZM29.0689 197.824C10.0666 212.867 2.49413 237.372 0.611413 260.879C-1.27325 284.41 2.5121 307.28 6.57698 319.474L9.42303 318.526C5.48789 306.72 1.74876 284.255 3.60184 261.118C5.45686 237.958 12.8843 214.463 30.931 200.176L29.0689 197.824Z" fill="#E2773A"/>
</svg>
