<svg width="305" height="134" viewBox="0 0 305 134" fill="none" xmlns="http://www.w3.org/2000/svg">
<path d="M243 103L241.589 102.492L243 103ZM0.600945 123.459C0.302177 124.232 0.686356 125.1 1.45903 125.399L14.0505 130.268C14.8232 130.567 15.6918 130.182 15.9905 129.41C16.2893 128.637 15.9051 127.768 15.1325 127.47L3.94002 123.142L8.26776 111.949C8.56653 111.177 8.18235 110.308 7.40968 110.009C6.637 109.711 5.76842 110.095 5.46966 110.868L0.600945 123.459ZM261.021 3.13632C272.75 13.2438 281.536 21.5016 287.902 28.3236C294.281 35.1606 298.163 40.4851 300.164 44.7235C302.153 48.9348 302.21 51.9031 301.229 54.209C300.217 56.5882 297.959 58.61 294.551 60.5914C291.154 62.5666 286.87 64.362 282.059 66.4281C277.286 68.4775 272.059 70.7684 266.942 73.6973C256.681 79.5708 246.785 88.0564 241.589 102.492L244.411 103.508C249.288 89.9611 258.554 81.9555 268.432 76.3009C273.385 73.4659 278.471 71.2337 283.243 69.1847C287.975 67.1525 292.466 65.2743 296.059 63.1849C299.642 61.1016 302.592 58.6675 303.989 55.3837C305.418 52.0265 305.088 48.1247 302.877 43.4426C300.679 38.7876 296.551 33.1956 290.095 26.2769C283.625 19.3433 274.75 11.0062 262.979 0.863679L261.021 3.13632ZM241.589 102.492C238.288 111.66 233.762 118.043 228.234 122.367C222.705 126.693 216.065 129.043 208.399 129.964C192.971 131.818 173.708 127.864 151.704 122.912C107.94 113.062 53.9253 99.3929 1.39324 122.628L2.60676 125.372C54.0747 102.607 107.06 115.938 151.046 125.838C172.917 130.761 192.717 134.87 208.757 132.942C216.826 131.973 224.022 129.471 230.082 124.73C236.144 119.988 240.962 113.09 244.411 103.508L241.589 102.492Z" fill="#B286FD"/>
</svg>
