<svg width="202" height="174" viewBox="0 0 202 174" fill="none" xmlns="http://www.w3.org/2000/svg">
<path d="M188.876 0.725509C188.172 0.288655 187.247 0.505123 186.81 1.20901L179.692 12.6794C179.255 13.3833 179.471 14.3081 180.175 14.7449C180.879 15.1818 181.804 14.9653 182.241 14.2614L188.568 4.06549L198.764 10.3934C199.468 10.8303 200.393 10.6138 200.83 9.90995C201.267 9.20606 201.05 8.28132 200.346 7.84446L188.876 0.725509ZM47.0361 172C47.3812 170.54 47.3813 170.54 47.3811 170.54C47.3806 170.54 47.38 170.54 47.379 170.54C47.377 170.539 47.3737 170.538 47.369 170.537C47.3598 170.535 47.3455 170.532 47.3261 170.527C47.2874 170.518 47.2286 170.503 47.1506 170.484C46.9947 170.446 46.7622 170.387 46.4603 170.309C45.8565 170.153 44.9755 169.918 43.8754 169.605C41.6744 168.978 38.6005 168.038 35.1161 166.787C28.1197 164.275 19.5808 160.551 13.1114 155.661C6.59953 150.74 2.57768 144.958 3.62804 138.307C4.7005 131.516 11.1311 123.109 27.5196 113.225L25.9702 110.656C9.4473 120.621 1.9586 129.647 0.664769 137.839C-0.651156 146.172 4.51371 152.924 11.3025 158.054C18.1338 163.217 27.0094 167.064 34.1024 169.61C37.6627 170.888 40.8022 171.849 43.0534 172.49C44.1794 172.811 45.0843 173.052 45.7098 173.214C46.0226 173.295 46.2656 173.356 46.4315 173.397C46.5145 173.417 46.5782 173.433 46.6217 173.443C46.6435 173.448 46.6602 173.452 46.6718 173.455C46.6776 173.457 46.6821 173.458 46.6853 173.458C46.6869 173.459 46.6883 173.459 46.6891 173.459C46.6902 173.46 46.691 173.46 47.0361 172ZM27.5196 113.225C60.8961 93.0938 67.3339 65.5037 75.2718 50.5475C77.263 46.7957 79.2853 43.9389 81.739 42.0762C84.1383 40.2548 87.0535 39.3063 91.022 39.5708C95.0478 39.8391 100.162 41.3586 106.857 44.5424C113.539 47.7202 121.708 52.5126 131.825 59.2372L133.486 56.7388C123.311 49.9755 115.009 45.0972 108.145 41.8332C101.294 38.5752 95.7869 36.8817 91.2215 36.5774C86.5986 36.2693 82.9525 37.3885 79.9251 39.6867C76.9522 41.9436 74.6827 45.2582 72.6219 49.1411C64.3515 64.7238 58.4165 91.0859 25.9702 110.656L27.5196 113.225ZM131.825 59.2372C152.17 72.7612 166.297 76.3663 175.991 73.4368C185.835 70.4624 190.4 61.0162 192.283 50.4903C194.179 39.8996 193.477 27.6678 192.327 18.1551C191.75 13.3841 191.056 9.26729 190.506 6.34156C190.231 4.87827 189.992 3.71177 189.821 2.90908C189.736 2.5077 189.667 2.19719 189.62 1.98593C189.596 1.8803 189.578 1.79947 189.565 1.74448C189.559 1.71699 189.554 1.69596 189.551 1.68152C189.549 1.67431 189.548 1.66873 189.547 1.66483C189.547 1.66287 189.546 1.6612 189.546 1.66022C189.546 1.65896 189.545 1.65812 188.085 2C186.624 2.34188 186.624 2.34188 186.625 2.34229C186.625 2.34299 186.625 2.34382 186.625 2.34521C186.626 2.34798 186.627 2.3524 186.628 2.35848C186.631 2.37062 186.635 2.38933 186.641 2.41447C186.653 2.46477 186.67 2.5408 186.693 2.64154C186.738 2.84301 186.804 3.14326 186.887 3.53394C187.053 4.31535 187.288 5.45816 187.558 6.89567C188.099 9.77154 188.781 13.8223 189.349 18.5152C190.487 27.9303 191.147 39.8115 189.33 49.9618C187.502 60.1769 183.283 68.0997 175.124 70.5651C166.816 73.0753 153.723 70.191 133.486 56.7388L131.825 59.2372Z" fill="#B55694"/>
</svg>
