<svg width="204" height="148" viewBox="0 0 204 148" fill="none" xmlns="http://www.w3.org/2000/svg">
<path d="M203.061 137.061C203.646 136.475 203.646 135.525 203.061 134.939L193.515 125.393C192.929 124.808 191.979 124.808 191.393 125.393C190.808 125.979 190.808 126.929 191.393 127.515L199.879 136L191.393 144.485C190.808 145.071 190.808 146.021 191.393 146.607C191.979 147.192 192.929 147.192 193.515 146.607L203.061 137.061ZM48.0002 2C47.4068 0.622381 47.4064 0.622564 47.4057 0.622854C47.4051 0.623093 47.4042 0.62349 47.4031 0.623967C47.4009 0.624922 47.3977 0.626302 47.3935 0.628104C47.3852 0.631708 47.3729 0.637001 47.3569 0.643962C47.3247 0.657883 47.2773 0.678473 47.2152 0.705557C47.0909 0.759725 46.9077 0.839873 46.6705 0.944595C46.1959 1.15403 45.5046 1.46181 44.6343 1.85668C42.894 2.64633 40.4363 3.78486 37.5629 5.18232C31.8225 7.97412 24.3953 11.8125 17.7073 15.9767C11.087 20.0987 4.95425 24.6806 2.03775 29.005C0.57174 31.1788 -0.274503 33.5764 0.43507 35.9292C1.14416 38.2804 3.24894 40.062 6.42315 41.3846L7.577 38.6154C4.75122 37.438 3.63725 36.1571 3.30729 35.063C2.97782 33.9705 3.27221 32.54 4.52497 30.6825C7.046 26.9444 12.6633 22.6513 19.293 18.5233C25.8551 14.4375 33.1779 10.6509 38.875 7.88018C41.7203 6.49639 44.1533 5.36929 45.8739 4.58863C46.7341 4.19835 47.4159 3.8948 47.8817 3.68919C48.1147 3.5864 48.2936 3.5081 48.4138 3.4557C48.4739 3.4295 48.5194 3.40977 48.5495 3.3967C48.5646 3.39017 48.5759 3.38529 48.5833 3.38211C48.5869 3.38051 48.5897 3.37934 48.5914 3.37859C48.5923 3.37822 48.5928 3.37797 48.5933 3.37779C48.5936 3.37765 48.5937 3.37762 48.0002 2ZM6.42315 41.3846C9.71479 42.7561 14.0606 43.1886 18.9702 43.0817C23.9104 42.9741 29.5788 42.3144 35.6028 41.3889C41.6305 40.4627 48.0615 39.2627 54.5235 38.0647C60.9956 36.8649 67.502 35.6665 73.7225 34.7334C79.9453 33.8 85.8454 33.1379 91.1009 33.0034C96.3725 32.8685 100.899 33.2683 104.417 34.397C107.911 35.5181 110.284 37.3117 111.521 39.907C112.775 42.5387 113.003 46.2881 111.553 51.6053L114.447 52.3947C115.997 46.7119 115.912 42.1488 114.229 38.6164C112.528 35.0477 109.339 32.8256 105.333 31.5405C101.351 30.263 96.44 29.8658 91.0241 30.0044C85.5921 30.1434 79.5548 30.825 73.2775 31.7666C66.998 32.7085 60.4419 33.9164 53.9766 35.115C47.501 36.3155 41.1196 37.506 35.1473 38.4236C29.1713 39.3418 23.6522 39.979 18.9049 40.0824C14.1271 40.1864 10.2853 39.7439 7.577 38.6154L6.42315 41.3846ZM111.553 51.6053C105.349 74.3536 116.006 95.905 134.013 111.63C152.023 127.357 177.619 137.5 202 137.5V134.5C178.381 134.5 153.477 124.643 135.987 109.37C118.494 94.095 108.651 73.6464 114.447 52.3947L111.553 51.6053Z" fill="#8EDD00"/>
</svg>
