<svg width="201" height="75" viewBox="0 0 201 75" fill="none" xmlns="http://www.w3.org/2000/svg">
<path d="M20.2579 63.6247L29.0193 21.883H43.7222L28.7675 74.036H19.9558L20.2579 63.6247ZM15.0716 21.883L23.984 63.6729L24.1351 74.036H15.273L0.318359 21.883H15.0716Z" fill="black"/>
<path d="M65.3234 21.883V74.036H51.1744V21.883H65.3234ZM50.5198 8.38689C50.5198 6.2982 51.2079 4.57905 52.5842 3.22943C53.9941 1.84769 55.8739 1.15681 58.2237 1.15681C60.607 1.15681 62.4869 1.84769 63.8632 3.22943C65.2395 4.57905 65.9276 6.2982 65.9276 8.38689C65.9276 10.4434 65.2227 12.1626 63.8128 13.5443C62.4365 14.894 60.5903 15.5688 58.274 15.5688C55.8907 15.5688 53.9941 14.894 52.5842 13.5443C51.2079 12.1626 50.5198 10.4434 50.5198 8.38689Z" fill="black"/>
<path d="M76.552 0H90.6003V61.9377L89.5933 74.036H76.552V0ZM118.898 46.2243V49.6465C118.898 53.8882 118.546 57.5835 117.841 60.7326C117.17 63.8817 116.112 66.5167 114.669 68.6375C113.259 70.7584 111.446 72.349 109.231 73.4094C107.015 74.4698 104.397 75 101.376 75C98.6567 75 96.3237 74.3895 94.3768 73.1684C92.4298 71.9152 90.785 70.196 89.4422 68.0109C88.1331 65.7937 87.0589 63.2069 86.2197 60.2506C85.414 57.2622 84.8266 54.0006 84.4573 50.4659V45.4049C84.793 41.9344 85.3637 38.705 86.1693 35.7166C87.0085 32.7281 88.0827 30.1414 89.3919 27.9563C90.701 25.7391 92.3291 24.0199 94.2761 22.7988C96.2566 21.5456 98.5896 20.919 101.275 20.919C104.363 20.919 107.015 21.4653 109.231 22.5578C111.446 23.6183 113.259 25.2089 114.669 27.3297C116.112 29.4505 117.17 32.1015 117.841 35.2828C118.546 38.4319 118.898 42.079 118.898 46.2243ZM104.85 49.6465V46.2243C104.85 43.8143 104.749 41.7416 104.548 40.0064C104.347 38.2712 103.977 36.8252 103.44 35.6684C102.903 34.5116 102.131 33.644 101.124 33.0656C100.151 32.4871 98.8581 32.1979 97.2469 32.1979C95.8034 32.1979 94.595 32.4711 93.6215 33.0174C92.648 33.5315 91.8088 34.3027 91.1039 35.331C90.4325 36.3271 89.929 37.5161 89.5933 38.8978C89.2912 40.2474 89.1233 41.7416 89.0898 43.3805V52.4904C89.1233 54.7076 89.4087 56.6677 89.9458 58.3708C90.4828 60.0739 91.3388 61.3914 92.5137 62.3233C93.7222 63.2551 95.3335 63.7211 97.3476 63.7211C98.9253 63.7211 100.201 63.464 101.174 62.9499C102.148 62.4357 102.903 61.6163 103.44 60.4916C104.011 59.367 104.38 57.921 104.548 56.1536C104.749 54.3541 104.85 52.1851 104.85 49.6465Z" fill="black"/>
<path d="M141.658 33.4994V74.036H127.559V21.883H140.852L141.658 33.4994ZM154.498 21.4974L154.296 34.9454C153.658 34.8168 152.886 34.7204 151.98 34.6562C151.107 34.5919 150.335 34.5598 149.664 34.5598C148.086 34.5598 146.743 34.8008 145.636 35.2828C144.528 35.7326 143.605 36.4235 142.866 37.3554C142.161 38.2551 141.624 39.3798 141.255 40.7294C140.886 42.079 140.667 43.6054 140.6 45.3085L137.932 44.3445C137.932 40.9383 138.2 37.8213 138.737 34.9936C139.308 32.1337 140.147 29.6594 141.255 27.5707C142.363 25.4499 143.689 23.8111 145.233 22.6542C146.81 21.4974 148.59 20.919 150.57 20.919C151.241 20.919 151.946 20.9833 152.685 21.1118C153.457 21.2082 154.061 21.3368 154.498 21.4974Z" fill="black"/>
<path d="M184.206 62.0341V37.9338C184.206 36.3593 184.004 35.106 183.601 34.1742C183.232 33.2423 182.661 32.5675 181.889 32.1497C181.151 31.6999 180.245 31.4749 179.17 31.4749C177.962 31.4749 176.955 31.7159 176.149 32.1979C175.344 32.6799 174.739 33.3708 174.336 34.2706C173.967 35.1703 173.783 36.2468 173.783 37.5H159.634C159.634 35.2506 160.087 33.1298 160.993 31.1375C161.899 29.1131 163.225 27.3458 164.971 25.8355C166.75 24.2931 168.865 23.088 171.315 22.2204C173.766 21.3528 176.518 20.919 179.573 20.919C183.199 20.919 186.421 21.5135 189.241 22.7024C192.061 23.8593 194.293 25.7069 195.938 28.2455C197.583 30.7841 198.405 34.0778 198.405 38.1266V61.3593C198.405 64.2834 198.556 66.6613 198.858 68.4929C199.194 70.3246 199.681 71.8991 200.318 73.2166V74.036H186.119C185.481 72.59 184.994 70.7905 184.659 68.6375C184.357 66.4524 184.206 64.2513 184.206 62.0341ZM185.918 42.1755L185.968 50.2731H180.782C179.439 50.2731 178.264 50.482 177.257 50.8997C176.283 51.3175 175.461 51.912 174.79 52.6832C174.118 53.4222 173.615 54.2898 173.279 55.286C172.977 56.2821 172.826 57.3425 172.826 58.4672C172.826 59.7204 173.011 60.7808 173.38 61.6485C173.749 62.5161 174.303 63.1748 175.041 63.6247C175.78 64.0746 176.653 64.2995 177.66 64.2995C179.204 64.2995 180.547 63.9942 181.688 63.3837C182.829 62.7731 183.668 62.0341 184.206 61.1665C184.776 60.2988 184.961 59.4955 184.759 58.7564L187.982 64.0103C187.579 65.1992 187.025 66.4364 186.32 67.7217C185.649 69.0071 184.793 70.196 183.752 71.2886C182.712 72.3811 181.419 73.2809 179.875 73.9878C178.365 74.6626 176.569 75 174.488 75C171.567 75 168.898 74.3573 166.482 73.072C164.065 71.7866 162.151 69.9871 160.741 67.6735C159.365 65.3599 158.677 62.6125 158.677 59.4312C158.677 56.7963 159.113 54.4184 159.986 52.2976C160.892 50.1446 162.235 48.3291 164.014 46.8509C165.793 45.3406 168.042 44.1838 170.761 43.3805C173.48 42.5771 176.669 42.1755 180.328 42.1755H185.918Z" fill="black"/>
</svg>
