<svg width="300" height="78" viewBox="0 0 300 78" fill="none" xmlns="http://www.w3.org/2000/svg">
<g clip-path="url(#clip0_844_2778)">
<path d="M269.472 65.8185V77.0163C271.654 76.7662 273.82 76.683 275.911 76.2411C281.03 75.1616 285.198 72.5929 287.77 67.764C289.353 64.7934 289.943 61.5764 290.114 58.2436C290.237 55.8126 290.235 53.3602 290.585 50.9655C291.217 46.6399 294.109 44.3904 298.042 43.3833C300.235 42.8216 299.844 42.9812 299.869 41.0211C299.894 39.1011 299.795 37.1776 299.904 35.2649C299.968 34.1309 299.514 33.7505 298.531 33.5403C296.546 33.12 294.726 32.3486 293.202 30.8957C291.452 29.2258 290.553 27.1608 290.358 24.7915C290.185 22.665 290.22 20.524 290.099 18.3939C289.701 11.3984 287.227 5.5949 280.765 2.2765C277.277 0.483267 273.504 -0.132591 269.402 0.0231842C269.402 1.52298 269.402 2.94308 269.402 4.36679C269.402 6.19987 269.449 8.03297 269.385 9.86241C269.351 10.8405 269.694 11.1159 270.627 11.163C273.328 11.3043 275.716 12.1737 277.358 14.5574C278.58 16.3253 278.753 18.354 278.775 20.4081C278.802 23.2881 278.802 26.1681 278.775 29.0483C278.768 29.8742 279.02 30.3524 279.763 30.8052C282.946 32.7398 286.074 34.7793 289.222 36.7717C290.269 37.4347 290.316 39.3366 289.254 40.0177C286.146 42.0139 283.032 44.0062 279.886 45.9444C279.049 46.4624 278.753 47.0783 278.765 48.0638C278.798 51.2047 278.741 54.3454 278.711 57.4828C278.669 62.6776 275.299 65.4489 270.489 65.7207C270.195 65.7388 269.899 65.7751 269.464 65.815L269.472 65.8185Z" fill="#B55694"/>
<path d="M65.0442 50.0753H71.0881V58.4554H62.5476C57.5548 58.4554 55.3212 56.377 54.9926 51.3489H53.1531L49.8027 58.4554C47.8975 58.9245 46.255 59.1257 44.2185 59.1257C36.9921 59.1257 32.9187 55.5726 32.9187 49.3379C32.9187 43.1029 35.941 40.2201 42.839 39.4828L53.1531 38.4101C54.0071 38.343 54.3358 38.008 54.3358 37.2706C54.3358 33.9184 51.9049 32.0412 47.7005 32.0412C43.4958 32.0412 41.2622 33.6501 40.8025 38.008H31.6049C32.3276 29.0914 37.8459 23.9964 48.0289 23.9964C58.2118 23.9964 63.8617 29.4938 63.8617 39.4828V48.9355C63.8617 49.74 64.2558 50.0753 65.0442 50.0753ZM46.7807 51.0138C51.9049 51.0138 54.1385 48.6002 54.3358 42.6338L46.7807 43.7064C43.4958 44.1756 42.1163 45.3154 42.1163 47.5946C42.1163 49.6729 43.9558 51.0138 46.7807 51.0138Z" fill="#B55694"/>
<path d="M99.9358 33.7843H84.9044C80.5029 33.7843 78.6634 36.1977 78.6634 41.8291V58.4551H69.1375V24.6667H78.0064V32.4434H79.8459L83.5249 24.6667L88.7805 24.6668C89.8316 24.6668 99.9358 24.6667 99.9358 24.6667V33.7843Z" fill="#B55694"/>
<path d="M109.117 50.0082H113.979V58.4554H108.132C99.263 58.4554 94.3356 54.0975 94.3356 45.0471V33.1139H88.423V24.6668H94.3356V15.2811H103.861V24.0734H113.979V33.7843H103.861V44.7118C103.861 48.2652 105.635 50.0082 109.117 50.0082Z" fill="#B55694"/>
<path d="M141.637 10.5883C154.644 10.5883 162.66 18.0298 163.316 30.8345H153.134C152.542 23.5941 148.469 19.6388 141.637 19.6388C133.753 19.6388 129.417 25.069 129.417 34.857C129.417 44.6448 133.753 50.0753 141.637 50.0753C148.798 50.0753 152.739 46.254 153.79 38.2089H163.973C163.251 50.9468 154.513 59.1257 141.637 59.1257C127.381 59.1257 119.234 50.3433 119.234 34.857C119.234 19.3706 127.381 10.5883 141.637 10.5883Z" fill="#23AECD"/>
<path d="M182.431 23.9964C193.074 23.9964 199.052 30.2982 199.052 41.5611C199.052 52.8239 193.008 59.1257 182.431 59.1257C171.854 59.1257 165.81 52.8239 165.81 41.5611C165.81 30.2982 171.854 23.9964 182.431 23.9964ZM182.431 50.6785C187.161 50.6785 189.855 47.3937 189.855 41.5611C189.855 35.7285 187.161 32.4436 182.431 32.4436C177.701 32.4436 175.008 35.7285 175.008 41.5611C175.008 47.3937 177.701 50.6785 182.431 50.6785Z" fill="#23AECD"/>
<path d="M217.506 59.1257C207.717 59.1257 201.936 52.6228 201.936 41.5611C201.936 30.4994 207.717 23.9963 217.506 23.9963C220.659 23.9963 223.221 24.6667 225.586 26.0745V11.2586H235.112V58.4551H226.243V51.3489H224.404L220.856 58.8575C219.674 59.0586 218.82 59.1257 217.506 59.1257ZM226.243 41.5611C226.243 35.7285 223.484 32.4433 218.688 32.4433C213.893 32.4433 211.133 35.7285 211.133 41.5611C211.133 47.3934 213.827 50.6786 218.688 50.6786C223.55 50.6786 226.243 47.3934 226.243 41.5611Z" fill="#23AECD"/>
<path d="M246.408 43.0359C246.802 48.1311 249.56 51.0138 254.094 51.0138C257.97 51.0138 260.007 49.3379 260.731 45.3824H269.993C269.336 54.0975 263.489 59.1257 254.094 59.1257C243.452 59.1257 237.474 52.7569 237.474 41.5611C237.474 30.3653 243.452 23.9964 253.765 23.9964C264.081 23.9964 269.336 30.4994 269.336 41.5611C269.336 42.5667 268.941 43.0359 268.153 43.0359H246.408ZM246.605 38.5442L258.627 38.343C259.415 38.343 259.81 38.008 259.81 37.2035C259.81 34.1196 257.444 32.1083 253.765 32.1083C250.086 32.1083 247.459 34.5217 246.605 38.5442Z" fill="#23AECD"/>
<path d="M30.4402 65.815V77.0128C28.257 76.7627 26.0916 76.6795 24.0005 76.2373C18.8814 75.1578 14.7137 72.5894 12.1399 67.7604C10.5566 64.7897 9.96728 61.5729 9.79689 58.2398C9.67262 55.8091 9.67617 53.3564 9.32472 50.9619C8.69282 46.6364 5.80309 44.3866 1.86967 43.3795C-0.324247 42.8181 0.0662565 42.9774 0.0414064 41.0176C0.0165562 39.0976 0.115957 37.174 0.0059061 35.2611C-0.0579944 34.1271 0.39641 33.7467 1.37977 33.5367C3.36422 33.1165 5.18538 32.3448 6.70835 30.8922C8.45852 29.222 9.35667 27.1571 9.55193 24.7879C9.72588 22.6614 9.69037 20.5204 9.81109 18.3903C10.2087 11.3948 12.683 5.59127 19.1441 2.27288C22.6302 0.48327 26.404 -0.132588 30.5007 0.0231877C30.5007 1.52298 30.5007 2.94308 30.5007 4.36679C30.5007 6.19989 30.4546 8.03297 30.5183 9.86241C30.5538 10.8405 30.2096 11.1159 29.2758 11.163C26.5743 11.3043 24.1887 12.1737 22.545 14.5574C21.3238 16.3253 21.1499 18.354 21.1286 20.4081C21.1001 23.2881 21.1001 26.1681 21.1286 29.0483C21.1357 29.8742 20.8836 30.3524 20.1417 30.8052C16.9573 32.7398 13.8297 34.7793 10.6808 36.7717C9.63358 37.4347 9.58743 39.3366 10.6489 40.0177C13.7587 42.0139 16.8721 44.0062 20.0174 45.9444C20.8552 46.4624 21.1499 47.0783 21.1392 48.0638C21.1073 51.2047 21.1641 54.3454 21.1925 57.4828C21.2351 62.6776 24.604 65.4492 29.4143 65.7207C29.7089 65.7388 30.0037 65.7751 30.4402 65.815Z" fill="#23AECD"/>
</g>
<defs>
<clipPath id="clip0_844_2778">
<rect width="300" height="77.1429" fill="white"/>
</clipPath>
</defs>
</svg>
