<svg width="300" height="92" viewBox="0 0 300 92" fill="none" xmlns="http://www.w3.org/2000/svg">
<g clip-path="url(#clip0_813_2404)">
<path fill-rule="evenodd" clip-rule="evenodd" d="M10.8461 63.5629L45.0072 3.78529C46.2941 1.44107 48.8679 -0.00537109 51.5587 -0.00537109C54.2494 -0.00537109 56.7062 1.44107 58.1101 3.78529L102.098 80.6707C103.385 83.0149 103.385 85.8829 102.098 88.2271C100.694 90.5713 98.2377 91.9928 95.5469 91.9928H7.57042C4.87965 91.9928 2.42285 90.5464 1.01897 88.2271C-0.384906 85.8829 -0.384906 83.0149 1.01897 80.6707L6.16654 71.618C10.9631 70.022 17.1636 67.5281 17.7485 67.6029C18.5675 67.7276 30.1495 81.2693 32.0213 81.3191C33.7762 81.369 40.0936 67.7276 41.1465 67.7027C42.1995 67.6528 52.9625 79.748 54.7174 79.9724C56.2383 80.172 75.8926 69.8724 75.1906 68.2264C74.6057 66.8548 56.7062 70.5956 55.5363 70.2963C54.4834 69.997 43.1354 57.8021 40.2106 57.9019C37.4029 58.0016 31.6704 67.5531 30.9684 67.5531C30.3835 67.5531 22.5451 57.7522 20.2053 57.7522C19.1524 57.7024 15.0578 60.4207 10.8461 63.5629Z" fill="black"/>
<path d="M116.413 85.2842C114.713 85.2842 113.313 85.1127 112.113 84.7453C111.013 84.3778 110.213 83.6429 109.813 82.516L84.3129 37.734C83.9129 36.9501 83.9128 36.0926 83.9128 35.6517C83.9128 34.7208 84.4128 34.1083 85.5128 33.7653C86.6128 33.4469 88.2128 33.2754 90.5128 33.2754H95.1128C96.3128 33.2754 97.5128 33.4469 98.5128 33.8143C99.5128 34.1818 100.013 34.9167 100.513 35.8477L118.813 69.5811H119.213L127.213 35.8477C127.513 34.8677 128.113 34.1818 129.113 33.8143C130.113 33.4469 131.313 33.2754 132.613 33.2754H136.613C139.013 33.2754 140.613 33.4469 141.613 33.7653C142.613 34.0838 143.113 34.7208 143.113 35.6517C143.113 35.9212 143.113 36.2151 143.113 36.5336C143.113 36.8521 143.013 37.2685 142.913 37.7095L127.713 82.516C127.313 83.6429 126.513 84.3778 125.413 84.7453C124.313 85.1127 122.813 85.2842 121.113 85.2842H116.413Z" fill="black"/>
<path d="M154.467 85.2841C152.067 85.2841 150.367 85.0146 149.267 84.5001C148.167 83.9857 147.667 83.1773 147.667 82.1239V36.46C147.667 35.4066 148.167 34.6226 149.267 34.0837C150.367 33.5692 152.067 33.2997 154.467 33.2997H157.267C159.667 33.2997 161.367 33.5692 162.467 34.0837C163.567 34.5981 164.067 35.4066 164.067 36.46V82.1239C164.067 83.1773 163.567 83.9612 162.467 84.5001C161.367 85.0146 159.667 85.2841 157.267 85.2841H154.467ZM155.867 28.4737C152.967 28.4737 150.767 28.1552 149.467 27.5428C148.167 26.9058 147.467 26.0239 147.467 24.8235V18.1111C147.467 16.9352 148.167 16.0288 149.467 15.3919C150.767 14.7549 152.867 14.4609 155.867 14.4609C158.867 14.4609 160.967 14.7794 162.267 15.3919C163.567 16.0043 164.267 16.9107 164.267 18.1111V24.8235C164.267 25.9994 163.567 26.9058 162.267 27.5428C160.967 28.1552 158.867 28.4737 155.867 28.4737Z" fill="black"/>
<path d="M198.781 85.8722C196.081 85.8722 193.581 85.2352 191.181 83.9368C188.781 82.6629 186.881 80.9971 185.381 78.9638C185.281 79.5517 185.081 80.0907 184.981 80.5806C184.781 81.0706 184.681 81.6095 184.481 82.1975C183.981 83.4469 183.281 84.2798 182.381 84.6718C181.481 85.0637 180.081 85.2597 178.081 85.2597H176.081C173.881 85.2597 172.281 84.9412 171.181 84.3288C170.181 83.6918 169.681 82.8099 169.681 81.6095V13.8731C169.681 12.8197 170.181 12.0358 171.281 11.4968C172.381 10.9824 174.081 10.7129 176.481 10.7129H179.281C181.681 10.7129 183.381 10.9824 184.481 11.4968C185.581 12.0113 186.081 12.8197 186.081 13.8731V36.7541C186.881 36.0926 187.881 35.4557 188.981 34.8187C190.181 34.1818 191.481 33.6918 192.981 33.2999C194.481 32.9079 195.981 32.7119 197.581 32.7119C203.881 32.7119 208.781 35.0392 212.281 39.7183C215.781 44.3974 217.581 50.9383 217.581 59.341C217.581 65 216.781 69.8016 215.181 73.7457C213.581 77.6899 211.381 80.7031 208.581 82.7609C205.681 84.8432 202.381 85.8722 198.781 85.8722ZM193.381 72.7658C196.081 72.7658 197.981 71.6879 199.181 69.5076C200.381 67.3273 200.981 63.9221 200.981 59.243C200.981 54.6375 200.381 51.2568 199.081 49.0765C197.781 46.8962 195.681 45.8183 192.781 45.8183C191.481 45.8183 190.181 46.0387 188.981 46.4552C187.781 46.8717 186.781 47.3861 186.081 47.9741V68.4052C186.781 69.5811 187.881 70.61 189.181 71.4674C190.281 72.3249 191.781 72.7658 193.381 72.7658Z" fill="black"/>
<path d="M229.243 85.2842C226.843 85.2842 225.043 84.9657 223.943 84.3533C222.843 83.7163 222.343 82.7854 222.343 81.536V50.6688C222.343 47.5821 222.243 45.2058 222.143 43.5644C221.943 41.9231 221.843 40.6737 221.643 39.8163C221.443 38.9589 221.443 38.1749 221.443 37.44C221.443 36.6561 221.843 35.9946 222.743 35.4557C223.643 34.9412 224.643 34.5247 225.943 34.2798C227.243 34.0103 228.543 33.8388 229.843 33.7408C231.143 33.6428 232.343 33.5938 233.243 33.5938C234.443 33.5938 235.343 33.7898 235.943 34.1818C236.543 34.5737 236.943 35.3332 237.343 36.4601C237.743 37.587 238.043 39.2283 238.343 41.3841C238.943 39.6693 239.743 38.1749 240.943 36.901C242.143 35.6271 243.243 34.5982 244.643 33.8388C246.043 33.0794 247.243 32.7119 248.443 32.7119C250.143 32.7119 251.343 33.0794 251.943 33.7898C252.543 34.5247 252.843 35.6761 252.843 37.244C252.843 37.832 252.743 38.8119 252.643 40.2082C252.543 41.5801 252.343 43.0255 252.043 44.5443C251.743 46.0632 251.343 47.3616 250.843 48.4395C250.343 49.5174 249.643 50.0564 248.743 50.0564C248.143 50.0564 247.543 49.8359 246.843 49.3704C246.143 48.905 245.243 48.6845 244.143 48.6845C242.943 48.6845 241.943 49.0029 241.043 49.6644C240.143 50.3258 239.443 51.1343 238.943 52.1387V81.536C238.943 82.7854 238.443 83.7163 237.343 84.3533C236.243 84.9902 234.543 85.2842 232.143 85.2842H229.243Z" fill="black"/>
<path d="M268.657 85.8723C263.657 85.8723 259.857 84.4514 257.557 81.5852C255.257 78.719 253.957 75.0688 253.957 70.5857C253.957 68.6748 254.257 66.6905 254.857 64.6082C255.457 62.5259 256.757 60.5906 258.657 58.7777C260.557 56.9649 263.457 55.495 267.257 54.3926C271.057 53.2902 276.157 52.7268 282.557 52.7268V50.3505C282.557 49.1746 282.357 48.2192 281.957 47.4843C281.557 46.7493 280.757 46.2104 279.657 45.8674C278.557 45.4999 277.057 45.3285 275.057 45.3285C272.557 45.3285 270.357 45.5489 268.357 46.0144C266.357 46.4798 264.657 46.9453 263.257 47.3863C261.857 47.8272 260.757 48.0722 260.057 48.0722C259.557 48.0722 259.057 47.7047 258.557 46.9943C258.057 46.2839 257.657 45.4019 257.357 44.373C257.057 43.3441 256.757 42.3397 256.557 41.3108C256.357 40.2819 256.357 39.5225 256.357 38.9835C256.357 38.1261 256.957 37.3177 258.257 36.5582C259.457 35.7988 261.157 35.1374 263.157 34.5249C265.157 33.937 267.357 33.4715 269.657 33.153C271.957 32.8346 274.157 32.6631 276.257 32.6631C280.657 32.6631 284.257 33.0796 287.257 33.937C290.157 34.7944 292.457 35.9703 294.157 37.4892C295.857 39.008 297.057 40.8209 297.757 42.9032C298.457 45.01 298.857 47.2883 298.857 49.7135V67.6704C298.857 70.8306 298.957 73.3049 299.157 75.1178C299.357 76.9306 299.557 78.327 299.757 79.3069C299.957 80.2868 300.057 81.1442 300.057 81.8792C300.057 82.6141 299.557 83.1531 298.657 83.545C297.757 83.937 296.657 84.28 295.257 84.5249C293.957 84.7944 292.557 84.9414 291.157 85.0149C289.757 85.0884 288.557 85.1129 287.557 85.1129C286.657 85.1129 285.957 84.8189 285.457 84.231C284.957 83.643 284.657 82.8836 284.457 81.9527C284.257 81.0217 284.057 80.1398 283.757 79.2824C283.357 79.7968 282.557 80.6053 281.257 81.7077C279.957 82.7856 278.257 83.741 276.157 84.5739C274.157 85.4558 271.657 85.8723 268.657 85.8723ZM274.657 73.2559C275.657 73.2559 276.557 73.0845 277.557 72.766C278.457 72.4475 279.457 71.982 280.357 71.3941C281.257 70.8062 282.057 70.1202 282.657 69.3118V62.9914C280.257 62.9914 278.357 63.1138 276.757 63.3833C275.157 63.6528 273.857 64.0203 272.757 64.5102C271.757 65.0002 270.957 65.6371 270.457 66.3966C269.957 67.156 269.757 68.0624 269.757 69.1158C269.757 70.3652 270.157 71.3696 270.957 72.129C271.757 72.8885 272.957 73.2559 274.657 73.2559Z" fill="black"/>
</g>
<defs>
<clipPath id="clip0_813_2404">
<rect width="300" height="92" fill="white"/>
</clipPath>
</defs>
</svg>
