<svg width="298" height="115" viewBox="0 0 298 115" fill="none" xmlns="http://www.w3.org/2000/svg">
<path d="M30.3477 96.0811L41.2607 33.752H66.6025L45.6553 113H30.7871L30.3477 96.0811ZM25.5137 33.752L36.2803 96.0811L35.9873 113H21.1191L0.171875 33.752H25.5137ZM99.6348 33.752V113H75.6113V33.752H99.6348ZM74.4395 13.3174C74.4395 9.80176 75.6357 6.9209 78.0283 4.6748C80.4697 2.42871 83.6191 1.30566 87.4766 1.30566C91.3828 1.30566 94.5322 2.42871 96.9248 4.6748C99.3174 6.9209 100.514 9.80176 100.514 13.3174C100.514 16.833 99.3174 19.7139 96.9248 21.96C94.5322 24.2061 91.3828 25.3291 87.4766 25.3291C83.6191 25.3291 80.4697 24.2061 78.0283 21.96C75.6357 19.7139 74.4395 16.833 74.4395 13.3174ZM113.917 0.5H137.94V93.5176L135.45 113H113.917V0.5ZM177.491 69.5674V76.9648C177.491 83.459 176.979 89.0498 175.953 93.7373C174.977 98.4248 173.414 102.307 171.266 105.383C169.117 108.459 166.407 110.754 163.136 112.268C159.864 113.732 155.982 114.465 151.49 114.465C147.633 114.465 144.386 113.464 141.749 111.462C139.161 109.46 137.013 106.701 135.304 103.186C133.595 99.6211 132.228 95.5195 131.202 90.8809C130.177 86.1934 129.322 81.1885 128.639 75.8662V70.8857C129.322 65.6123 130.152 60.6318 131.129 55.9443C132.154 51.2568 133.521 47.1553 135.23 43.6396C136.939 40.0752 139.088 37.292 141.676 35.29C144.312 33.2881 147.56 32.2871 151.417 32.2871C155.958 32.2871 159.864 33.0684 163.136 34.6309C166.407 36.1445 169.117 38.4639 171.266 41.5889C173.414 44.665 174.977 48.5225 175.953 53.1611C176.979 57.7998 177.491 63.2686 177.491 69.5674ZM153.468 76.9648V69.5674C153.468 66.2471 153.37 63.4395 153.175 61.1445C153.028 58.8008 152.687 56.9209 152.149 55.5049C151.612 54.04 150.782 52.9902 149.659 52.3555C148.585 51.6719 147.12 51.3301 145.265 51.3301C143.409 51.3301 141.847 51.7207 140.577 52.502C139.356 53.2832 138.38 54.4307 137.647 55.9443C136.964 57.4092 136.476 59.2402 136.183 61.4375C135.938 63.5859 135.89 66.0518 136.036 68.835V77.7705C135.792 81.5791 135.89 84.8018 136.329 87.4385C136.769 90.0752 137.696 92.0771 139.112 93.4443C140.577 94.8115 142.652 95.4951 145.338 95.4951C147.291 95.4951 148.805 95.2266 149.879 94.6895C151.002 94.1035 151.808 93.127 152.296 91.7598C152.833 90.3438 153.15 88.4395 153.248 86.0469C153.395 83.6055 153.468 80.5781 153.468 76.9648ZM212.208 53.3809V113H188.111V33.752H210.523L212.208 53.3809ZM230.592 33.166L230.299 56.0908C229.371 55.9932 228.15 55.8711 226.637 55.7246C225.123 55.5781 223.878 55.5049 222.901 55.5049C220.704 55.5049 218.849 55.8467 217.335 56.5303C215.821 57.165 214.552 58.1416 213.526 59.46C212.55 60.7295 211.842 62.3408 211.402 64.2939C210.963 66.2471 210.768 68.5176 210.816 71.1055L206.788 68.1758C206.788 62.8535 207.203 58.0195 208.033 53.6738C208.912 49.2793 210.133 45.4951 211.695 42.3213C213.258 39.0986 215.138 36.6328 217.335 34.9238C219.532 33.166 221.974 32.2871 224.659 32.2871C225.685 32.2871 226.734 32.3604 227.809 32.5068C228.883 32.6533 229.811 32.873 230.592 33.166ZM270.655 93.0781V58.2148C270.655 55.9688 270.484 54.2598 270.143 53.0879C269.801 51.8672 269.239 51.0127 268.458 50.5244C267.726 49.9873 266.627 49.7188 265.162 49.7188C263.99 49.7188 263.038 50.0117 262.306 50.5977C261.573 51.1836 261.061 52.0869 260.768 53.3076C260.475 54.5283 260.328 56.1396 260.328 58.1416H236.231C236.231 54.4795 236.939 51.0859 238.355 47.9609C239.771 44.7871 241.798 42.0283 244.435 39.6846C247.071 37.3408 250.221 35.5342 253.883 34.2646C257.594 32.9463 261.744 32.2871 266.334 32.2871C271.754 32.2871 276.612 33.166 280.909 34.9238C285.206 36.6328 288.6 39.3916 291.09 43.2002C293.629 47.0088 294.898 52.0625 294.898 58.3613V93.0049C294.898 98.1807 295.167 102.111 295.704 104.797C296.241 107.434 296.974 109.753 297.901 111.755V113H273.878C272.755 110.559 271.925 107.58 271.388 104.064C270.899 100.5 270.655 96.8379 270.655 93.0781ZM273.365 64.5869L273.512 77.7705H267.286C265.772 77.7705 264.479 78.1367 263.404 78.8691C262.33 79.5527 261.427 80.4805 260.694 81.6523C260.011 82.8242 259.522 84.1426 259.229 85.6074C258.937 87.0234 258.79 88.4883 258.79 90.002C258.79 92.1504 259.01 93.7129 259.449 94.6895C259.938 95.666 260.523 96.3008 261.207 96.5938C261.939 96.8379 262.745 96.96 263.624 96.96C265.479 96.96 267.018 96.5693 268.238 95.7881C269.508 94.958 270.411 93.9814 270.948 92.8584C271.485 91.7354 271.632 90.7832 271.388 90.002L273.878 99.6699C273.048 101.477 272.242 103.259 271.461 105.017C270.68 106.726 269.703 108.312 268.531 109.777C267.359 111.193 265.919 112.316 264.21 113.146C262.501 114.025 260.353 114.465 257.765 114.465C253.663 114.465 249.854 113.635 246.339 111.975C242.872 110.314 240.064 107.751 237.916 104.284C235.816 100.817 234.767 96.4229 234.767 91.1006C234.767 87.4385 235.328 84.0205 236.451 80.8467C237.623 77.624 239.454 74.792 241.944 72.3506C244.435 69.9092 247.779 68.0049 251.979 66.6377C256.227 65.2705 261.402 64.5869 267.506 64.5869H273.365Z" fill="black"/>
</svg>
