<svg width="60" height="60" viewBox="0 0 60 60" fill="none" xmlns="http://www.w3.org/2000/svg">
<path fill-rule="evenodd" clip-rule="evenodd" d="M53.3546 49.0288C52.5131 48.336 51.6535 47.6596 50.8664 46.9077C49.9899 46.071 49.4391 45.059 49.5591 43.7774C49.628 43.0401 49.4578 42.4058 48.5686 42.1593C48.7777 41.6183 48.9736 41.2555 49.0528 40.8688C49.141 40.4376 49.1363 39.9843 49.1485 39.5404C49.2722 34.8716 47.5856 30.779 45.0877 26.9615C43.9374 25.2046 42.736 23.4791 41.5097 21.7743C39.5916 19.108 38.9039 16.1127 38.8692 12.8769C38.8495 11.3832 38.6798 9.89528 38.3625 8.43552C37.7471 5.60427 36.2302 3.39037 33.4791 2.20302C31.3711 1.29271 29.1891 1.11224 26.963 1.6949C23.7281 2.54099 21.7721 4.94521 21.8086 8.29865C21.8433 11.526 22.0041 14.7576 22.2408 17.9774C22.3758 19.8022 22.0946 21.3768 20.8838 22.8243C19.7194 24.216 18.6778 25.7174 17.6691 27.2291C17.093 28.0935 16.583 29.0352 16.2267 30.0093C15.2564 32.6638 14.3644 35.3404 12.8161 37.7436C12.2424 38.6343 12.1772 39.6308 12.5846 40.6494C12.69 40.9133 12.7547 41.3193 12.6263 41.5316C11.5228 43.363 10.2774 44.9746 7.90784 45.3261C6.04409 45.6032 5.95221 45.9421 6.00893 47.8635C6.0558 49.4277 6.03752 51.0065 5.87768 52.5608C5.70752 54.2272 5.88143 54.6801 7.49112 55.0794C11.2055 56.0019 14.9503 56.789 18.503 58.2922C20.0156 58.9321 21.5335 58.7099 22.7517 57.4658C24.0235 56.1669 25.6303 55.6588 27.3661 55.6569C30.3122 55.6546 33.2592 55.7966 36.2067 55.8299C37.0046 55.8393 37.4625 56.136 37.7836 56.8607C38.1774 57.748 38.843 58.4001 39.8672 58.5135C41.8327 58.7301 43.6233 58.4385 45.1125 56.939C46.9491 55.0883 49.0669 53.6268 51.4946 52.6138C52.1892 52.3236 52.8436 51.8676 53.4178 51.3726C54.4636 50.4716 54.4083 49.8979 53.3546 49.0288ZM29.2622 11.3062C29.6175 10.0869 30.4514 9.29568 31.7199 9.05568C32.7867 8.85412 33.69 9.37818 34.3631 10.5772C35.0878 11.8701 35.326 13.221 34.7072 14.6357C34.1996 15.7954 33.9614 15.9046 32.7746 15.5113C32.5524 15.4377 32.3353 15.3505 31.9416 15.2057C32.2735 14.9272 32.4825 14.7205 32.7216 14.5579C33.2531 14.196 33.4022 13.6869 33.3525 13.0822C33.2874 12.2882 32.663 11.5851 32.0227 11.594C31.4485 11.6019 30.9624 12.141 30.8977 12.9604C30.8574 13.4708 30.9422 13.9912 30.9788 14.6427C29.3635 14.1632 28.7705 12.9904 29.2622 11.3062ZM23.2856 10.251C23.8828 9.34724 24.7842 9.16631 25.6767 9.77099C26.6278 10.416 27.3394 12.2347 26.9719 13.3222C26.8383 13.7179 26.4436 14.0254 26.1675 14.3727L25.8844 14.1974C25.7766 13.6101 25.755 12.9857 25.5296 12.4476C25.3871 12.1063 24.9403 11.8926 24.63 11.6216C24.3385 11.968 23.8364 12.298 23.8064 12.666C23.7652 13.1741 24.03 13.7347 24.2606 14.2274C24.4064 14.5372 24.7299 14.7641 25.0636 15.1255L24.1627 15.8333C22.748 14.5677 22.3275 11.699 23.2856 10.251ZM40.9406 40.3476C40.8455 41.5682 40.7063 41.6193 39.4791 41.7997C38.6077 41.9272 38.3733 42.1541 38.3292 43.1891C38.2812 44.4 38.2793 45.6123 38.3236 46.8233C38.3522 47.653 38.0719 48.3036 37.501 48.8826C34.3303 52.0963 30.5424 53.6193 26.011 53.0666C24.0563 52.828 22.7785 51.6383 21.7467 49.9546C22.2061 49.7844 22.546 49.6701 22.8774 49.5355C24.3408 48.9402 24.6146 47.6816 23.446 46.5932C22.5628 45.7696 21.5775 45.0543 20.6302 44.3001C19.7142 43.5712 18.7861 42.8572 17.8688 42.1302C17.0869 41.5101 16.7883 40.7108 16.7696 39.6983C16.7255 37.2693 17.2252 34.9968 18.2405 32.7857C19.1461 30.8127 19.8478 28.7465 20.6963 26.7458C21.1346 25.7136 21.5897 24.6576 22.2328 23.7515C22.8511 22.8824 23.2331 22.0316 23.1647 20.9671C23.1253 20.369 23.1572 19.7661 23.1572 19.1657L23.4886 19.0007C24.0235 19.4624 24.5677 19.9143 25.0931 20.3877C26.9892 22.0968 28.7925 22.1751 30.8677 20.7018C31.7527 20.0732 32.7099 19.544 33.646 18.9899C33.8789 18.8521 34.1578 18.7916 34.5525 18.644C35.5608 21.0186 36.5503 23.3469 37.5408 25.6752C38.0433 26.8583 38.4464 28.0972 39.0708 29.2129C40.3228 31.4511 40.9889 33.8127 40.9786 36.3716C40.973 37.6982 41.0428 39.0294 40.9406 40.3476Z" fill="white"/>
</svg>
