<svg width="60" height="60" viewBox="0 0 60 60" fill="none" xmlns="http://www.w3.org/2000/svg">
<path d="M17.0526 25.1437C17.0526 25.875 17.1314 26.4679 17.2706 26.9015C17.4281 27.3356 17.6259 27.81 17.902 28.3228C17.9991 28.4803 18.0394 28.6378 18.0394 28.777C18.0394 28.9729 17.9203 29.1707 17.6644 29.3681L16.4208 30.1978C16.2431 30.315 16.0655 30.3754 15.9084 30.3754C15.7106 30.3754 15.5128 30.2765 15.315 30.0989C15.0495 29.8125 14.8116 29.5017 14.6044 29.1707C14.3847 28.791 14.1808 28.4024 13.9931 28.0059C12.4547 29.8223 10.5197 30.7307 8.18999 30.7307C6.53296 30.7307 5.21108 30.2564 4.24265 29.3095C3.27562 28.3612 2.78296 27.0979 2.78296 25.5192C2.78296 23.842 3.37452 22.4798 4.57968 21.4546C5.78249 20.4271 7.38093 19.9143 9.4153 19.9143C10.0856 19.9143 10.7756 19.9729 11.5059 20.0718C12.2372 20.1707 12.9876 20.3282 13.777 20.5059V19.065C13.777 17.565 13.4601 16.5196 12.8489 15.9084C12.2161 15.2967 11.1506 15 9.63093 15C8.94046 15 8.2303 15.0787 7.49952 15.2564C6.77397 15.4292 6.06169 15.6537 5.36812 15.9281C5.05124 16.0654 4.81499 16.1442 4.67765 16.1845C4.5389 16.2229 4.43999 16.2431 4.36124 16.2431C4.08468 16.2431 3.94733 16.0453 3.94733 15.6318V14.6648C3.94733 14.3479 3.98577 14.1117 4.08468 13.9729C4.18312 13.8356 4.36124 13.6982 4.6378 13.559C5.3278 13.2037 6.15749 12.9075 7.12405 12.6707C8.09108 12.4143 9.11811 12.2957 10.2037 12.2957C12.5512 12.2957 14.2687 12.8282 15.375 13.8942C16.4606 14.9596 17.0119 16.5782 17.0119 18.75V25.1437H17.0526ZM9.03983 28.1451C9.68999 28.1451 10.3617 28.0261 11.0723 27.7898C11.783 27.5517 12.4144 27.1181 12.9473 26.5265C13.2623 26.1515 13.5005 25.7371 13.6176 25.2632C13.7367 24.7889 13.8155 24.2179 13.8155 23.5453V22.7179C13.2175 22.571 12.6117 22.4585 12.0009 22.3809C11.3851 22.3032 10.765 22.2641 10.1442 22.2637C8.82233 22.2637 7.8553 22.5201 7.20327 23.0531C6.55312 23.5856 6.23671 24.3346 6.23671 25.3218C6.23671 26.25 6.47296 26.9404 6.96702 27.4143C7.4414 27.907 8.13187 28.1451 9.03983 28.1451ZM24.8878 30.2765C24.5325 30.2765 24.2962 30.2179 24.1387 30.0787C23.9794 29.9596 23.842 29.685 23.723 29.31L19.0851 14.0531C18.968 13.6579 18.907 13.4015 18.907 13.2623C18.907 12.9473 19.065 12.7701 19.3819 12.7701H21.3155C21.6905 12.7701 21.9469 12.8282 22.0861 12.9675C22.2436 13.0846 22.3626 13.3612 22.4798 13.7362L25.7958 26.8031L28.8755 13.7367C28.973 13.3429 29.092 13.0851 29.2491 12.9679C29.4084 12.8484 29.685 12.7696 30.0403 12.7696H31.6186C31.9936 12.7696 32.2505 12.8282 32.408 12.9675C32.5655 13.0846 32.7047 13.3612 32.783 13.7362L35.9016 26.9606L39.3164 13.7367C39.4336 13.3429 39.5728 13.0851 39.7101 12.9679C39.8676 12.8484 40.1259 12.7696 40.4808 12.7696H42.3155C42.6323 12.7696 42.81 12.9271 42.81 13.2623C42.81 13.3607 42.7898 13.4601 42.7697 13.5792C42.7495 13.6982 42.7111 13.8557 42.6323 14.0714L37.8755 29.3296C37.7564 29.7234 37.6191 29.9798 37.4597 30.0984C37.3022 30.2179 37.0458 30.2967 36.7106 30.2967H35.0137C34.6383 30.2967 34.3819 30.2357 34.2244 30.0989C34.065 29.9596 33.9276 29.7032 33.8489 29.3095L30.7894 16.5782L27.7495 29.2893C27.6511 29.685 27.5339 29.9414 27.3745 30.0787C27.2166 30.2179 26.9405 30.2765 26.5851 30.2765H24.8878ZM50.2495 30.8095C49.2244 30.8095 48.1969 30.6904 47.2101 30.4542C46.223 30.2179 45.4542 29.9596 44.9414 29.6648C44.6245 29.4871 44.4084 29.2898 44.3297 29.1117C44.2519 28.9376 44.2113 28.7492 44.2106 28.5586V27.5517C44.2106 27.1382 44.3681 26.9404 44.6653 26.9404C44.7825 26.9404 44.9011 26.9606 45.0201 27.0009C45.1373 27.0393 45.315 27.1181 45.5123 27.1968C46.21 27.5032 46.9381 27.7352 47.6845 27.8887C48.4734 28.0462 49.2426 28.125 50.0334 28.125C51.277 28.125 52.2436 27.907 52.9139 27.4734C53.5856 27.0393 53.9409 26.4075 53.9409 25.5984C53.9409 25.0453 53.7633 24.5929 53.4084 24.2175C53.0531 23.8425 52.3809 23.5068 51.4144 23.1904L48.5522 22.3021C47.1112 21.8479 46.0453 21.1781 45.3956 20.2898C44.7441 19.4203 44.4084 18.4532 44.4084 17.4281C44.4084 16.5984 44.5866 15.8681 44.9414 15.2362C45.2938 14.6013 45.7783 14.0493 46.3622 13.6176C46.9537 13.1653 47.6259 12.8282 48.4153 12.592C49.2042 12.3557 50.0334 12.2568 50.9016 12.2568C51.3356 12.2568 51.7894 12.277 52.2234 12.3356C52.6777 12.3942 53.0916 12.4729 53.5069 12.5517C53.9006 12.6506 54.2761 12.7495 54.6314 12.8686C54.9867 12.9876 55.2633 13.1048 55.4611 13.2239C55.7376 13.3814 55.935 13.5389 56.0522 13.7161C56.1712 13.8754 56.2298 14.092 56.2298 14.3681V15.2962C56.2298 15.7106 56.0723 15.9281 55.7756 15.9281C55.6181 15.9281 55.3617 15.8479 55.027 15.6904C53.9006 15.1776 52.6373 14.9212 51.2367 14.9212C50.1122 14.9212 49.2244 15.0989 48.6126 15.4743C47.9991 15.8479 47.6845 16.4212 47.6845 17.2303C47.6845 17.7834 47.8819 18.2573 48.2756 18.6309C48.6712 19.0059 49.402 19.3818 50.4473 19.7165L53.2505 20.6048C54.6717 21.059 55.6973 21.6904 56.3086 22.5C56.9203 23.3095 57.217 24.2376 57.217 25.2632C57.217 26.1126 57.0389 26.8818 56.7042 27.5517C56.3489 28.2239 55.8745 28.8154 55.2633 29.2893C54.6516 29.782 53.9208 30.1373 53.0733 30.3956C52.185 30.6703 51.2569 30.8095 50.2495 30.8095Z" fill="white"/>
<path d="M55.3125 34.3819C53.235 34.4115 50.7825 34.8751 48.9276 36.1782C48.3543 36.5921 48.4532 37.1447 49.0851 37.066C51.1982 36.8096 55.8539 36.2569 56.6836 37.3224C57.5133 38.3677 55.7573 42.7693 54.9665 44.724C54.7303 45.3146 55.2431 45.5532 55.7756 45.099C59.249 42.1782 60.1575 36.0793 59.4468 35.191C59.092 34.7574 57.39 34.3519 55.3125 34.3819ZM0.764032 35.559C0.329501 35.6133 0.132626 36.1383 0.591532 36.5532C8.32966 43.5385 18.5723 47.7432 29.9414 47.7432C38.0531 47.7432 47.4867 45.1979 53.9793 40.4026C55.0448 39.6113 54.1186 38.4085 53.0325 38.9007C45.7509 41.9804 37.8351 43.4804 30.6318 43.4804C19.9547 43.4804 9.63184 40.5399 1.26325 35.6837C1.08044 35.5754 0.909345 35.5412 0.764501 35.559H0.764032Z" fill="white"/>
</svg>
