<svg width="60" height="60" viewBox="0 0 60 60" fill="none" xmlns="http://www.w3.org/2000/svg">
<path d="M0 23.9521V36.0281H2.07281V26.5331L9.71719 36.0328H22.6987V34.1048H14.3217V30.9168H21.0577V28.9889H14.3217V25.8853H22.6983V23.9559H12.2484V25.8853H12.2494V35.9437L2.59078 23.9521H0ZM39.8859 23.9568V25.8857H44.1188V36.0342H46.1906V25.8857H50.3377V23.9564H39.8859V23.9568ZM25.2038 23.962L34.9209 36.0389H37.6411L32.7825 30.0046L37.6341 23.9714L34.92 23.9761L31.4236 28.3171L27.9173 23.9625H25.2033L25.2038 23.962ZM58.0903 30.8048C57.7336 30.8048 57.413 30.8648 57.1289 30.9895C56.8467 31.1128 56.6236 31.2862 56.4605 31.5089C56.2964 31.732 56.2144 31.9926 56.2144 32.2889C56.2144 32.6498 56.3353 32.9376 56.58 33.1546C56.8223 33.3721 57.1552 33.5339 57.5756 33.6403L58.1569 33.7865C58.321 33.8263 58.4818 33.8786 58.6378 33.9431C58.759 33.991 58.8682 34.0647 58.958 34.1592C59.0357 34.25 59.0771 34.3664 59.0742 34.4859C59.0754 34.623 59.0285 34.7562 58.9416 34.8623C58.8473 34.9761 58.7243 35.0627 58.5853 35.1131C58.4156 35.1758 58.2356 35.2063 58.0547 35.2031C57.8767 35.2055 57.6996 35.1767 57.5316 35.1178C57.3853 35.0651 57.2554 34.9751 57.1547 34.8567C57.0555 34.732 56.9978 34.5794 56.9897 34.4203H56.0798C56.0925 34.7531 56.1811 35.0371 56.3452 35.2696C56.5092 35.5021 56.737 35.6789 57.0295 35.7993C57.3202 35.9212 57.6656 35.9821 58.0617 35.9821C58.4719 35.9821 58.8206 35.9184 59.1084 35.7946C59.3977 35.6681 59.6184 35.4932 59.7713 35.2706C59.9245 35.0461 60 34.7887 60 34.4934C60 34.275 59.9578 34.0846 59.8753 33.9229C59.7934 33.7621 59.6784 33.6203 59.5378 33.5071C59.3915 33.39 59.2292 33.2942 59.0559 33.2226C58.8757 33.1461 58.689 33.0858 58.4981 33.0421L58.02 32.925C57.9143 32.8997 57.81 32.8692 57.7073 32.8336C57.6091 32.8002 57.5152 32.7553 57.4275 32.7C57.346 32.6512 57.277 32.5841 57.2259 32.504C57.1749 32.4227 57.1492 32.3281 57.1519 32.2321C57.1522 32.1111 57.1913 31.9933 57.2634 31.8961C57.3366 31.7976 57.4439 31.7198 57.5812 31.6617C57.7391 31.601 57.9072 31.5717 58.0763 31.5754C58.3505 31.5754 58.5741 31.6345 58.7466 31.755C58.8299 31.8112 58.8994 31.8855 58.9499 31.9723C59.0005 32.0592 59.0308 32.1563 59.0386 32.2565H59.9292C59.9292 31.9866 59.8451 31.7233 59.6888 31.5032C59.5327 31.2848 59.3175 31.1128 59.0433 30.9895C58.7695 30.8653 58.4527 30.8048 58.0903 30.8048ZM54.3413 30.8723V34.4114C54.3398 34.5881 54.3122 34.7381 54.2588 34.8586C54.2106 34.9726 54.1276 35.0684 54.0216 35.1323C53.9194 35.1946 53.7928 35.2261 53.6452 35.2261C53.5092 35.2261 53.3892 35.1993 53.2837 35.1464C53.1821 35.0965 53.0971 35.0182 53.0391 34.9209C52.9778 34.814 52.9462 34.6926 52.9477 34.5693H52.0275C52.0275 34.8792 52.0964 35.1379 52.237 35.3456C52.3769 35.5537 52.5741 35.7169 52.8047 35.8153C53.0593 35.9243 53.334 35.9786 53.6109 35.9746C53.9377 35.9746 54.2255 35.9118 54.4711 35.7871C54.7122 35.6674 54.9135 35.4803 55.0505 35.2486C55.1878 35.0146 55.2586 34.7362 55.2605 34.4109V30.8723H54.3413ZM29.3419 30.9L25.1962 36.0478H27.9173L30.7003 32.5884L29.3419 30.9ZM50.8036 34.8834C50.6517 34.8834 50.5223 34.9359 50.4145 35.0409C50.3624 35.089 50.3212 35.1476 50.2934 35.2128C50.2656 35.278 50.2519 35.3483 50.2533 35.4192C50.2515 35.4909 50.265 35.5621 50.2928 35.6282C50.3206 35.6943 50.3621 35.7537 50.4145 35.8026C50.5223 35.9081 50.6517 35.9601 50.8036 35.9601C50.8983 35.9608 50.9913 35.9355 51.0727 35.887C51.1556 35.8396 51.2217 35.7745 51.2733 35.692C51.3239 35.61 51.3508 35.5155 51.3511 35.4192C51.3511 35.3481 51.3363 35.2778 51.3078 35.2126C51.2792 35.1475 51.2375 35.0891 51.1852 35.0409C51.1353 34.9905 51.0758 34.9506 51.0103 34.9236C50.9448 34.8965 50.8745 34.8829 50.8036 34.8834Z" fill="white"/>
</svg>
