<svg width="60" height="60" viewBox="0 0 60 60" fill="none" xmlns="http://www.w3.org/2000/svg">
<g clip-path="url(#clip0_213_302)">
<path d="M12.7832 0.0515299C12.6894 0.0880924 10.055 1.58903 6.92989 3.38528C3.14333 5.56216 1.19848 6.70872 1.09442 6.81653C1.00536 6.922 0.935044 7.04247 0.889106 7.17278C0.810825 7.43715 0.8052 46.072 0.884419 46.35C0.913012 46.4578 1.00629 46.6162 1.09067 46.7034C1.29504 46.919 23.9019 59.9175 24.1766 59.9803C24.3041 60.0107 24.4471 60.0056 24.5891 59.9662C24.8975 59.8889 47.4454 46.919 47.646 46.7072C47.728 46.6157 47.8218 46.4578 47.8522 46.3504C47.8916 46.2225 47.9061 44.2036 47.9061 39.9497V33.734L53.4027 30.577C58.5852 27.5972 58.9025 27.4106 59.0357 27.2062L59.1716 26.9859V20.2907C59.1716 13.0026 59.1857 13.4128 58.8974 13.1493C58.82 13.0809 56.1796 11.5401 53.0239 9.72278L47.2921 6.42653H46.655L41.0474 9.64684C37.9602 11.4225 35.3361 12.9407 35.2082 13.0232C35.0807 13.1076 34.9283 13.2632 34.866 13.3762L34.7525 13.5717L34.7272 19.8787L34.7047 26.1881L30.0739 28.8553C27.5268 30.3197 25.4066 31.5318 25.3616 31.5431C25.2796 31.5661 25.2739 30.9656 25.2739 19.3715V7.16856L25.1521 6.95903C24.9993 6.70356 25.6846 7.1109 18.8033 3.15559C13.0325 -0.163158 13.1713 -0.0937826 12.7832 0.0515299ZM18.088 4.88294C20.5021 6.26809 22.4774 7.41419 22.4774 7.42825C22.4774 7.44278 20.3605 8.66622 17.7735 10.1531L13.0668 12.8554L8.36848 10.1536C5.78708 8.66622 3.67161 7.44278 3.67161 7.42825C3.67161 7.41419 5.78333 6.19075 8.3652 4.70715L13.0522 2.01091L13.3757 2.18716C14.9493 3.08106 16.52 3.97965 18.088 4.88294ZM51.6824 11.099C54.2239 12.5625 56.3268 13.7718 56.3465 13.7915C56.3999 13.8398 47.0774 19.1986 46.9499 19.1929C46.8224 19.1892 37.6147 13.8797 37.6185 13.815C37.6232 13.7414 46.8871 8.41169 46.9808 8.42622C47.0235 8.43653 49.1404 9.64028 51.6824 11.099ZM7.64051 11.8725L12.1208 14.452L12.1466 27.224L12.17 39.9984L12.2793 40.1709C12.3364 40.2618 12.4443 40.3861 12.523 40.4432C12.5971 40.4972 15.0904 41.9179 18.0627 43.5951L23.4627 46.6448V52.0481C23.4627 55.0134 23.4425 57.4462 23.4172 57.4462C23.398 57.4462 18.7297 54.7748 13.0466 51.5043L2.71536 45.5629L2.70129 27.2976L2.69239 9.03794L2.92208 9.16497C3.05473 9.23528 5.17536 10.4531 7.64004 11.872L7.64051 11.8725ZM23.4627 20.8631V32.6329L23.2813 32.7515C23.0352 32.9072 14.0624 38.0648 14.0319 38.0648C14.0179 38.0648 14.0066 32.7511 14.0066 26.2556L14.0122 14.4515L18.6997 11.7553C21.2774 10.2717 23.4032 9.06794 23.4285 9.07684C23.4468 9.08809 23.4627 14.3925 23.4627 20.8631ZM41.3455 18.1561L46.0438 20.8575V26.2125C46.0438 31.2928 46.0386 31.5656 45.9613 31.5361C45.9111 31.5168 43.7854 30.2986 41.2349 28.8295L36.5896 26.1623V20.8092C36.5896 17.8622 36.6046 15.4542 36.6186 15.4542C36.6388 15.4542 38.7641 16.6692 41.3455 18.1561ZM57.3599 20.775C57.3599 23.7065 57.3402 26.1243 57.3205 26.1478C57.2868 26.2017 47.9943 31.5562 47.9352 31.5562C47.9207 31.5562 47.9061 29.1492 47.9061 26.2017V20.8486L52.5936 18.1504C55.175 16.6692 57.3008 15.4542 57.3205 15.4542C57.3454 15.4542 57.3599 17.8472 57.3599 20.775ZM44.9966 33.2498L24.3772 45.0187L15.0261 39.6998C15.0261 39.6998 35.6249 27.7861 35.7074 27.817L44.9966 33.2498ZM46.0349 40.2L46.019 45.5634L35.6933 51.5053C30.0121 54.7753 25.3424 57.4467 25.319 57.4467C25.2941 57.4467 25.2744 55.2632 25.2744 52.0486V46.6453L35.6244 40.7428C41.3113 37.4976 45.9843 34.8412 46.0091 34.8356C46.0293 34.8356 46.0382 37.2487 46.0344 40.1995L46.0349 40.2Z" fill="white"/>
</g>
<defs>
<clipPath id="clip0_213_302">
<rect width="60" height="60" fill="white"/>
</clipPath>
</defs>
</svg>
