<svg width="60" height="60" viewBox="0 0 60 60" fill="none" xmlns="http://www.w3.org/2000/svg">
<path d="M30 1.07812C14.0156 1.07812 1.07812 14.0156 1.07812 30C1.07812 45.9844 14.0156 58.9219 30 58.9219C45.9844 58.9219 58.9219 45.9844 58.9219 30C58.9219 14.0156 45.9844 1.07812 30 1.07812ZM45.6094 17.8125C44.25 17.8594 43.3594 17.0625 43.3125 15.8438C43.3125 15.375 43.4062 15 43.7344 14.5312C44.0156 13.9688 44.1094 13.875 44.1094 13.6406C44.0625 12.8906 42.9375 12.8438 42.6094 12.8438C38.25 12.9844 37.125 18.8438 36.1875 23.625L35.7187 26.1562C38.2031 26.5312 39.9844 26.0625 40.9688 25.4531C42.375 24.5625 40.5938 23.625 40.7812 22.5938C41.0156 21.5625 41.9531 21.0469 42.7031 21C43.7812 20.9531 44.5312 22.0781 44.4844 23.2031C44.4375 25.0312 42 27.6094 37.0781 27.4688C36.4687 27.4688 35.9531 27.4219 35.4375 27.375L34.5 32.4844C33.6562 36.3281 32.5781 41.625 28.6406 46.2187C25.2656 50.25 21.8438 50.8594 20.2969 50.9062C17.4375 51 15.5156 49.4531 15.4688 47.4375C15.4219 45.4687 17.1562 44.3906 18.2812 44.3437C19.8281 44.2969 20.8594 45.4219 20.9062 46.6875C20.9531 47.7656 20.3906 48.0937 20.0156 48.3281C19.7812 48.5156 19.4063 48.75 19.4063 49.1719C19.4063 49.3594 19.6406 49.7812 20.25 49.7812C21.4688 49.7344 22.2656 49.125 22.8281 48.75C25.6406 46.4062 26.7188 42.3281 28.125 34.9687L28.4062 33.1875C28.875 30.7969 29.4375 28.0781 30.2344 25.4062C28.2656 23.9062 27.0938 22.0781 24.4219 21.375C22.5938 20.8594 21.5156 21.2812 20.7188 22.2656C19.7812 23.4375 20.1094 24.9375 21 25.8281L22.4531 27.4688C24.2813 29.5781 25.2656 31.1719 24.8906 33.375C24.375 36.7969 20.2031 39.4688 15.2812 37.9688C11.0625 36.6562 10.3125 33.7031 10.8281 32.0625C11.25 30.6094 12.4219 30.3281 13.5469 30.7031C14.7656 31.0781 15.2344 32.5312 14.8594 33.6562C14.8125 33.7969 14.7656 33.9844 14.625 34.2188C14.4844 34.5469 14.25 34.7812 14.1094 35.1562C13.8281 36.0469 15.0469 36.6562 15.8906 36.9375C17.7656 37.5 19.5938 36.5156 20.0625 35.0156C20.4844 33.6094 19.5938 32.625 19.2656 32.25L17.4844 30.3281C16.6875 29.4375 14.8594 26.9062 15.75 24.0469C16.0781 22.9688 16.7812 21.7969 17.8125 21.0469C19.9688 19.4063 22.3594 19.1719 24.6094 19.8281C27.5156 20.6719 28.9219 22.5938 30.75 24.0938C31.7812 21.1406 33.1875 18.1875 35.2969 15.75C37.2188 13.5 39.75 11.9063 42.7031 11.7656C45.6562 11.6719 47.8594 12.9844 47.9531 15.0938C47.9062 16.0313 47.3906 17.7656 45.6094 17.8125Z" fill="white"/>
</svg>
