<svg width="60" height="60" viewBox="0 0 60 60" fill="none" xmlns="http://www.w3.org/2000/svg">
<g clip-path="url(#clip0_213_286)">
<path d="M40.3463 11.5613C40.2887 11.5609 40.232 11.5754 40.1817 11.6035C40.1293 11.634 40.0856 11.6775 40.0548 11.7298C40.024 11.7821 40.0072 11.8414 40.006 11.9021V20.7755C40.0049 20.8192 39.993 20.8619 39.9714 20.8998C39.9499 20.9378 39.9192 20.9698 39.8822 20.993C39.8447 21.0132 39.8029 21.0237 39.7603 21.0237C39.7178 21.0237 39.6759 21.0132 39.6385 20.993L38.2013 20.1619C38.0958 20.1015 37.9764 20.0697 37.8549 20.0697C37.7333 20.0697 37.6139 20.1015 37.5085 20.1619L31.7578 23.506C31.6513 23.566 31.5625 23.653 31.5004 23.7584C31.4383 23.8638 31.4052 23.9837 31.4044 24.106V30.78C31.4044 31.0257 31.5408 31.2586 31.7578 31.3814L37.5094 34.726C37.6147 34.7862 37.734 34.8179 37.8553 34.8179C37.9767 34.8179 38.0959 34.7862 38.2013 34.726L43.9528 31.3814C44.1699 31.2586 44.3063 31.0257 44.3063 30.78V14.1413C44.3063 13.8821 44.1699 13.6491 43.9528 13.5272L40.5216 11.6035C40.4672 11.576 40.4072 11.5615 40.3463 11.5613ZM6.41533 19.8891C6.30752 19.8891 6.19924 19.9294 6.10455 19.9829L0.352989 23.3152C0.244991 23.3768 0.155363 23.4661 0.0933252 23.5739C0.0312877 23.6816 -0.000918572 23.804 1.99402e-05 23.9283L0.0140824 32.8819C0.0140824 33.0052 0.0806449 33.1285 0.189395 33.1833C0.239771 33.2167 0.298874 33.2345 0.359317 33.2345C0.41976 33.2345 0.478862 33.2167 0.529239 33.1833L3.94877 31.2178C4.05513 31.1575 4.14366 31.0702 4.20539 30.9647C4.26713 30.8591 4.29988 30.7392 4.30033 30.6169V26.4268C4.30033 26.1811 4.43627 25.9482 4.65377 25.8254L6.10455 24.9793C6.21058 24.9146 6.33288 24.8816 6.45705 24.8841C6.57893 24.8841 6.70174 24.9108 6.7969 24.9793L8.24815 25.8254C8.46518 25.9482 8.60158 26.1811 8.60158 26.4268V30.6174C8.60158 30.8621 8.73658 31.0955 8.95315 31.2174L12.345 33.1833C12.3978 33.2166 12.4589 33.2343 12.5213 33.2343C12.5837 33.2343 12.6448 33.2166 12.6975 33.1833C12.7515 33.1538 12.7965 33.1102 12.8276 33.0571C12.8588 33.004 12.8749 32.9435 12.8742 32.8819V23.9283C12.8742 23.6827 12.7383 23.4502 12.5208 23.3269L6.78283 19.9829C6.68635 19.9311 6.58055 19.8991 6.47158 19.8886H6.41486L6.41533 19.8891ZM53.6044 19.9861V19.9871L53.6035 19.988C53.4849 19.988 53.3667 20.0185 53.258 20.0804L47.506 23.4225C47.2889 23.5463 47.1544 23.7783 47.1544 24.0244V30.6994C47.1544 30.945 47.2889 31.1775 47.506 31.2999L53.2167 34.576C53.3196 34.6364 53.4368 34.6682 53.5561 34.6682C53.6754 34.6682 53.7926 34.6364 53.8955 34.576L57.3549 32.6386C57.4087 32.609 57.4535 32.5653 57.4845 32.5122C57.5154 32.4592 57.5314 32.3987 57.5306 32.3372C57.5311 32.276 57.515 32.2158 57.4841 32.163C57.4532 32.1102 57.4085 32.0667 57.3549 32.0372L51.5766 28.6922C51.5238 28.6612 51.4798 28.6171 51.449 28.5641C51.4182 28.5111 51.4016 28.4511 51.4008 28.3899V26.3016C51.4003 26.2405 51.4164 26.1804 51.4473 26.1278C51.4783 26.0751 51.523 26.0318 51.5766 26.0025L53.3831 24.9652C53.4359 24.9319 53.497 24.9143 53.5594 24.9143C53.6218 24.9143 53.6829 24.9319 53.7356 24.9652L55.538 26.0025C55.5905 26.0332 55.6342 26.0768 55.6652 26.1291C55.6961 26.1815 55.7131 26.2408 55.7147 26.3016V27.9394C55.7147 28.0627 55.7822 28.1855 55.8905 28.2399C55.9433 28.2734 56.0046 28.2912 56.0672 28.2912C56.1298 28.2912 56.1911 28.2734 56.2439 28.2399L59.6616 26.2336C59.7664 26.1728 59.8533 26.0851 59.9131 25.9797C59.973 25.8743 60.0038 25.7549 60.0024 25.6336V24.0094C60.0024 23.7638 59.8655 23.5318 59.6616 23.4085L53.9517 20.0799C53.8462 20.0189 53.7267 19.9865 53.6049 19.9857L53.6044 19.9861ZM22.178 20.0091C22.0658 20.0094 21.9556 20.0389 21.8583 20.0949L16.1536 23.4075L18.1496 27.0685L22.2455 20.0157C22.2232 20.0128 22.2009 20.0108 22.1785 20.0096H22.1775L22.178 20.0091ZM22.4433 20.0785L26.4778 27.0225L28.3739 23.5327C28.3388 23.4967 28.2994 23.4651 28.2567 23.4385L25.3172 21.7308L22.4874 20.0958C22.4733 20.0888 22.4578 20.0841 22.4433 20.0785ZM22.3261 20.1066L18.2133 27.1866L22.2924 34.6702C22.3036 34.6678 22.3149 34.6669 22.3261 34.6636L26.4131 27.1416L22.3256 20.1071L22.3261 20.1066ZM16.0556 23.4685C15.9712 23.5276 15.9024 23.6064 15.8553 23.6982C15.8083 23.7899 15.7844 23.8918 15.7856 23.9949V30.6985C15.7856 30.8053 15.8147 30.9094 15.8644 31.0018L18.0806 27.1847L16.0556 23.4685ZM28.4541 23.6288L26.5458 27.1397L28.5699 30.6244V23.9949C28.5699 23.8636 28.5267 23.7357 28.4536 23.6293L28.4541 23.6288ZM37.8553 24.9718C37.8858 24.9718 37.9163 24.9788 37.9444 24.9929L39.9099 26.1403C39.9642 26.1675 39.9919 26.2346 39.9919 26.2894V28.583C39.9919 28.6514 39.9638 28.7068 39.9099 28.7339L37.943 29.88C37.9155 29.8934 37.8852 29.9004 37.8546 29.9004C37.824 29.9004 37.7938 29.8934 37.7663 29.88L35.7999 28.7349C35.7455 28.7077 35.7174 28.6388 35.7174 28.5839V26.2903C35.7174 26.2219 35.746 26.168 35.7999 26.1403L37.7663 24.9929C37.7939 24.979 37.8244 24.9718 37.8553 24.9718ZM53.5842 25.8999C53.5599 25.9001 53.5363 25.9076 53.5163 25.9214L52.4166 26.5632C52.3959 26.576 52.3789 26.5939 52.3672 26.6153C52.3555 26.6367 52.3496 26.6607 52.35 26.685V27.9694C52.35 28.0238 52.3758 28.065 52.4166 28.0922L53.5163 28.7339C53.5364 28.7472 53.5599 28.7543 53.584 28.7543C53.6081 28.7543 53.6316 28.7472 53.6517 28.7339L54.7505 28.0918C54.7712 28.0787 54.7882 28.0607 54.8 28.0393C54.8118 28.0179 54.818 27.9939 54.818 27.9694V26.686C54.8182 26.6616 54.812 26.6375 54.8002 26.6162C54.7884 26.5948 54.7713 26.5769 54.7505 26.5641L53.6517 25.9214C53.6317 25.9082 53.6082 25.9012 53.5842 25.9013V25.9004V25.8999ZM26.4816 27.2593L22.4916 34.6022L22.4981 34.5989L28.2577 31.2535C28.4185 31.1625 28.5216 31.0069 28.5563 30.8302L26.4816 27.2593ZM18.1458 27.3038L15.9356 31.1086C15.9825 31.1663 16.0374 31.2164 16.0997 31.2539L21.7969 34.5643L21.8578 34.5994H21.8592C21.9036 34.6246 21.9508 34.6444 21.9999 34.6585C22.0144 34.6632 22.0289 34.6655 22.043 34.6688C22.0711 34.6749 22.0983 34.6791 22.1264 34.6814C22.14 34.6828 22.1531 34.6824 22.1667 34.6824L18.1458 27.3038ZM29.6349 33.5818C29.4347 33.5818 29.235 33.6286 29.0653 33.7243L23.6513 36.8789C23.4775 36.9807 23.3334 37.1262 23.2334 37.3009C23.1333 37.4757 23.0809 37.6737 23.0813 37.875V44.1657C23.0813 44.5754 23.2983 44.9574 23.6508 45.1627L25.0763 45.9811C25.7677 46.3224 26.0114 46.3205 26.3231 46.3205C27.3403 46.3205 27.9244 45.6933 27.9244 44.6152V38.4075C27.9239 38.3645 27.9068 38.3233 27.8767 38.2925C27.8466 38.2618 27.8057 38.2439 27.7627 38.2425H27.0713C27.0277 38.243 26.986 38.2606 26.9551 38.2914C26.9243 38.3222 26.9068 38.3639 26.9063 38.4075V44.6175C26.9063 45.0952 26.4066 45.5733 25.6064 45.1641L24.1271 44.3044C24.0727 44.2772 24.0455 44.2074 24.0455 44.153V37.86C24.0455 37.8057 24.0727 37.7368 24.1271 37.71L29.5388 34.5713C29.5795 34.5441 29.6475 34.5441 29.7028 34.5713L35.1141 37.7096C35.168 37.7377 35.1966 37.7921 35.1966 37.8596V44.1521C35.1966 44.22 35.1685 44.2763 35.1141 44.3035L29.7014 47.4563C29.6606 47.4835 29.5927 47.4835 29.5374 47.4563L28.155 46.6233C28.1138 46.5961 28.0594 46.583 28.0191 46.6093C27.6394 46.8286 27.5724 46.8568 27.2058 46.9796C27.1242 47.0068 26.9888 47.0602 27.2597 47.2102L29.0653 48.2897C29.2416 48.3849 29.431 48.4388 29.6349 48.4388C29.8383 48.4388 30.0408 48.3849 30.2035 48.3169L35.6156 45.1641C35.7895 45.0619 35.9336 44.916 36.0335 44.7408C36.1334 44.5656 36.1857 44.3673 36.1852 44.1657V37.875C36.1852 37.4654 35.9681 37.0847 35.6156 36.8799L30.2035 33.7252C30.0292 33.6299 29.8335 33.5802 29.6349 33.5818ZM38.085 36.4547C37.8071 36.4558 37.541 36.5673 37.3453 36.7645C37.1495 36.9618 37.0401 37.2287 37.0411 37.5066C37.0404 37.7843 37.1499 38.051 37.3456 38.2481C37.5413 38.4451 37.8073 38.5564 38.085 38.5575C38.6555 38.5575 39.1303 38.0794 39.1303 37.5066C39.129 37.2292 39.0186 36.9635 38.8231 36.7668C38.6275 36.5701 38.3624 36.4581 38.085 36.4552V36.4547ZM38.071 36.631H38.0724C38.1881 36.6295 38.3029 36.6512 38.4102 36.6946C38.5175 36.738 38.615 36.8023 38.6972 36.8838C38.7793 36.9653 38.8445 37.0624 38.8887 37.1693C38.933 37.2762 38.9555 37.3909 38.955 37.5066C38.955 37.9847 38.5608 38.3925 38.0724 38.3925C37.598 38.3925 37.2033 37.9979 37.2033 37.5066C37.2033 37.0154 37.6106 36.6319 38.071 36.631ZM37.6913 36.9188V38.1188H37.9228V37.6439H38.1281C38.2097 37.6439 38.236 37.6711 38.25 37.7391C38.25 37.7532 38.2903 38.0527 38.2903 38.1071H38.5341C38.506 38.0527 38.4933 37.8877 38.4797 37.7921C38.4666 37.6421 38.4535 37.5338 38.2903 37.5202C38.3719 37.4925 38.506 37.4522 38.506 37.2338C38.506 36.9197 38.2341 36.9197 38.0986 36.9197L37.6913 36.9188ZM37.8966 37.11H38.085C38.1535 37.11 38.2627 37.11 38.2627 37.2741C38.2627 37.3285 38.235 37.4382 38.085 37.4382H37.8966V37.11ZM31.1142 38.0522C29.5674 38.0522 28.643 38.708 28.643 39.8138C28.643 41.0016 29.566 41.3269 31.0449 41.4769C32.8214 41.655 32.9574 41.9152 32.9574 42.27C32.9574 42.8841 32.4689 43.1424 31.3294 43.1424C29.8913 43.1424 29.5786 42.7875 29.4699 42.0647C29.4699 41.9822 29.4042 41.9288 29.3227 41.9288H28.6172C28.5737 41.9288 28.532 41.9461 28.5012 41.9768C28.4704 42.0076 28.4531 42.0493 28.4531 42.0928C28.4531 43.021 28.9425 44.1118 31.3172 44.1118C33.0258 44.1118 34.0149 43.4293 34.0149 42.2274C34.0149 41.0541 33.2274 40.7396 31.5596 40.5211C29.8767 40.3027 29.701 40.1799 29.701 39.7843C29.701 39.4566 29.851 39.0207 31.0978 39.0207C32.2111 39.0207 32.6316 39.2663 32.7947 40.0168C32.8025 40.0507 32.8212 40.0813 32.8479 40.1036C32.8747 40.126 32.908 40.1389 32.9428 40.1405H33.6619C33.7027 40.1405 33.7449 40.1138 33.7725 40.0866C33.798 40.0503 33.812 40.0072 33.8128 39.9628C33.7046 38.6527 32.851 38.0522 31.1142 38.0522Z" fill="white"/>
</g>
<defs>
<clipPath id="clip0_213_286">
<rect width="60" height="60" fill="white"/>
</clipPath>
</defs>
</svg>
