<svg width="60" height="60" viewBox="0 0 60 60" fill="none" xmlns="http://www.w3.org/2000/svg">
<path d="M4.1062 0.46875L8.81948 53.3827L29.9685 59.2795L51.1767 53.3611L55.8937 0.46875H4.1062ZM46.102 12.5916L44.5331 30.2189L44.5378 30.3141L44.5312 30.533V30.5311L43.4165 42.8564L43.2937 43.9514L30 47.6283L29.9896 47.6377L16.7189 43.9402L15.8203 33.75H22.3279L22.7896 38.9316L30.0018 40.8862L30 40.89V40.8891L37.2389 38.9067L38.0039 30.4688H22.8712L22.7414 29.0423L22.4456 25.7006L22.2904 23.9062H38.579L39.1715 17.3438H14.3625L14.2326 15.9183L13.9373 12.5756L13.7817 10.7812H46.2571L46.102 12.5916Z" fill="#F5F5F5"/>
</svg>
