<svg width="60" height="60" viewBox="0 0 60 60" fill="none" xmlns="http://www.w3.org/2000/svg">
<path fill-rule="evenodd" clip-rule="evenodd" d="M42.4177 26.8509C42.2442 24.6056 41.7164 22.4404 40.9824 20.3194C39.4617 15.5831 37.0214 11.3915 33.5841 7.78498C32.715 6.87279 31.7485 6.03701 31.1424 4.90169C30.7589 4.18357 30.3938 3.4556 30.0202 2.73185L29.7835 2.13513C29.7436 2.27201 29.7183 2.32076 29.7169 2.36998C29.6864 3.54982 29.018 4.34998 28.1855 5.09669C27.2494 5.93716 26.378 6.84935 25.4785 7.73013L22.7124 11.369C21.9661 12.7401 21.2208 14.1112 20.4755 15.4823L18.9802 19.5215L18.9352 19.5844C18.1121 22.2881 17.7061 25.0678 17.5064 27.8756C17.4314 28.9308 17.5167 30.0014 17.5763 31.0622C17.6611 32.5786 17.9246 34.0692 18.3197 35.5364C19.755 40.867 22.6678 45.2887 26.6499 49.0453C27.39 49.7433 28.1494 50.3779 28.9219 51.0422C29.0541 50.5898 29.1596 50.1375 29.2796 49.6851C29.3996 49.2347 29.521 48.7865 29.6021 48.3347C29.5205 48.7865 29.4291 49.2347 29.3386 49.6851L28.9514 51.0422L29.2974 52.2145L29.618 54.0351L29.7708 55.935C29.7694 56.3208 29.7539 56.7075 29.7774 57.0928C29.783 57.1912 29.9124 57.2822 29.9846 57.3769L30.6296 57.6033L31.3017 57.8648L31.1864 56.1759L31.1813 54.5128L31.4133 51.9792L31.5816 51.4275L32.063 50.5743C32.6574 50.0962 33.2953 49.6622 33.8367 49.1301C34.8164 48.1673 35.7938 47.1923 36.6703 46.1381C37.8113 44.7717 38.7855 43.2743 39.5724 41.6775C40.0983 40.6069 40.5933 39.5147 41.003 38.3958C41.3639 37.4095 41.5875 36.3731 41.8721 35.3587C41.8974 35.2856 41.9311 35.2139 41.9471 35.1394C42.5349 32.4014 42.6338 29.6358 42.4177 26.8509Z" fill="#F5F5F5"/>
</svg>
