<svg width="60" height="60" viewBox="0 0 60 60" fill="none" xmlns="http://www.w3.org/2000/svg">
<path fill-rule="evenodd" clip-rule="evenodd" d="M39.8503 40.7834V21.3903C39.8503 21.0586 39.7185 20.7406 39.484 20.5061C39.2494 20.2716 38.9314 20.1399 38.5997 20.1399H19.2292V0.121826H58.5957C58.7599 0.121794 58.9226 0.154117 59.0743 0.216951C59.2261 0.279785 59.364 0.371897 59.4801 0.488029C59.5963 0.60416 59.6884 0.742035 59.7513 0.89378C59.8141 1.04552 59.8465 1.20817 59.8465 1.37242V40.7834H39.8503Z" fill="white"/>
<path opacity="0.405" fill-rule="evenodd" clip-rule="evenodd" d="M19.2291 0.121826V20.1399H0.741461C0.617819 20.1399 0.496961 20.1032 0.394158 20.0345C0.291354 19.9658 0.211219 19.8682 0.163876 19.754C0.116533 19.6397 0.104107 19.5141 0.128168 19.3928C0.15223 19.2715 0.211699 19.1601 0.299061 19.0726L19.2291 0.121826ZM39.8502 59.2905V40.7834H59.8464L40.9178 59.7325C40.8303 59.8199 40.7189 59.8794 40.5977 59.9035C40.4764 59.9277 40.3507 59.9153 40.2364 59.868C40.1222 59.8207 40.0245 59.7406 39.9558 59.6378C39.887 59.535 39.8503 59.4142 39.8502 59.2905ZM19.2291 20.1399H39.2248C39.3906 20.1399 39.5497 20.2058 39.6669 20.323C39.7842 20.4402 39.8502 20.5993 39.8502 20.7651V40.7834H20.4797C20.3155 40.7834 20.1529 40.7511 20.0011 40.6882C19.8494 40.6254 19.7115 40.5333 19.5954 40.4171C19.4793 40.301 19.3872 40.1631 19.3243 40.0114C19.2615 39.8597 19.2291 39.6971 19.2291 39.5328V20.1399Z" fill="white"/>
</svg>
