<svg width="60" height="60" viewBox="0 0 60 60" fill="none" xmlns="http://www.w3.org/2000/svg">
<g clip-path="url(#clip0_139_183)">
<path d="M37.7812 18.8907H37.9688L37.875 18.797L44.4375 12.2345V12.0938C38.9063 7.21884 31.2656 5.53134 24.1875 7.64072C17.1094 9.75009 11.6719 15.3751 9.70312 22.5001C9.79688 22.4532 9.9375 22.4063 10.0781 22.4063C12.5156 20.8126 15.4219 19.8751 18.4688 19.8751C19.5 19.8751 20.4844 19.9688 21.4687 20.1563C21.5156 20.1095 21.5625 20.1095 21.6094 20.1095C25.8281 15.4688 32.9531 14.9063 37.8281 18.8907H37.7812Z" fill="white"/>
<path d="M50.6719 22.4062C49.5938 18.4219 47.3438 14.8125 44.2031 12.0469L37.5 18.7031C40.3125 21 41.9531 24.4688 41.8594 28.0781V29.25C49.7813 29.25 49.7813 41.0625 41.8594 41.0625H29.9531V50.4375H29.9062L29.9531 50.5313H41.8594C48.7031 50.5781 54.75 46.1719 56.7656 39.7031C58.7812 33.2344 56.2969 26.2031 50.6719 22.4062Z" fill="white"/>
<path d="M18.2812 50.5781H30.6094V41.1094H18.2812C17.3906 41.1094 16.5469 40.9219 15.75 40.5938L8.625 47.4375V47.5313C11.4375 49.5469 14.8125 50.625 18.3281 50.625L18.2812 50.5781Z" fill="white"/>
<path d="M18.8438 19.6406C11.8594 19.6875 5.67194 24 3.42194 30.3281C1.17194 36.7031 3.42194 43.6875 8.95319 47.8125L16.2657 40.8281C12.2344 39.0937 11.2969 34.0313 14.3907 31.0781C17.4844 28.0781 22.7344 29.0156 24.5626 32.8594L31.8751 25.875C28.7813 21.9844 23.9532 19.6875 18.8438 19.7344V19.6406Z" fill="white"/>
</g>
<defs>
<clipPath id="clip0_139_183">
<rect width="60" height="60" fill="white"/>
</clipPath>
</defs>
</svg>
