<svg width="500" height="500" viewBox="0 0 500 500" fill="none" xmlns="http://www.w3.org/2000/svg">
<path d="M219.129 331.4C222.996 331.4 226.693 330.718 230.219 329.353C233.746 327.988 237.215 326.395 240.628 324.575C241.993 323.665 243.414 322.869 244.893 322.186C246.372 321.504 247.908 321.163 249.5 321.163C251.32 321.163 254.278 322.3 258.373 324.575C261.785 326.395 265.254 327.988 268.781 329.353C272.307 330.718 276.004 331.4 279.871 331.4C291.246 331.4 300.403 327.362 307.342 319.286C314.281 311.209 317.75 300.46 317.75 287.038C317.75 270.658 312.119 258.031 300.858 249.159C289.597 240.286 273.388 235.85 252.23 235.85H246.77C225.613 235.85 209.403 240.286 198.142 249.159C186.881 258.031 181.25 270.658 181.25 287.038C181.25 300.46 184.719 311.209 191.658 319.286C198.597 327.362 207.754 331.4 219.129 331.4ZM218.788 310.925C213.328 310.925 209.062 308.821 205.991 304.612C202.919 300.403 201.384 294.545 201.384 287.038C201.384 276.573 205.081 268.838 212.474 263.833C219.868 258.828 231.3 256.325 246.77 256.325H251.889C267.359 256.325 278.734 258.828 286.014 263.833C293.294 268.838 296.934 276.573 296.934 287.038C296.934 294.545 295.455 300.403 292.498 304.612C289.54 308.821 285.331 310.925 279.871 310.925C277.141 310.925 273.274 309.56 268.269 306.83C265.311 305.01 262.297 303.531 259.226 302.394C256.154 301.256 252.913 300.688 249.5 300.688C246.088 300.688 242.789 301.256 239.604 302.394C236.419 303.531 233.348 305.01 230.39 306.83C228.57 307.968 226.693 308.934 224.759 309.731C222.826 310.527 220.835 310.925 218.788 310.925ZM221.176 195.583C222.996 193.08 223.679 190.464 223.224 187.734C222.769 185.004 221.29 182.843 218.788 181.25C216.285 179.658 213.669 179.146 210.939 179.714C208.209 180.283 205.934 181.819 204.114 184.321C200.019 189.554 195.355 194.104 190.123 197.971C184.89 201.839 179.316 205.251 173.401 208.209C170.899 209.574 169.022 211.564 167.771 214.181C166.519 216.797 166.463 219.47 167.6 222.2C168.738 224.93 170.614 226.75 173.231 227.66C175.847 228.57 178.52 228.456 181.25 227.319C189.213 223.451 196.549 218.958 203.261 213.839C209.972 208.721 215.944 202.635 221.176 195.583ZM277.824 195.583C283.056 202.408 288.971 208.379 295.569 213.498C302.166 218.617 309.333 223.11 317.068 226.978C319.798 228.343 322.584 228.57 325.428 227.66C328.272 226.75 330.263 224.93 331.4 222.2C332.538 219.47 332.481 216.74 331.229 214.01C329.978 211.28 327.988 209.346 325.258 208.209C319.343 205.479 313.769 202.18 308.536 198.313C303.304 194.445 298.754 189.895 294.886 184.663C293.066 182.16 290.791 180.568 288.061 179.885C285.331 179.203 282.715 179.658 280.213 181.25C277.71 182.843 276.231 185.004 275.776 187.734C275.321 190.464 276.004 193.08 277.824 195.583ZM249.5 386C230.618 386 212.873 382.417 196.265 375.251C179.658 368.084 165.211 358.359 152.926 346.074C140.641 333.789 130.916 319.343 123.749 302.735C116.583 286.128 113 268.383 113 249.5C113 230.618 116.583 212.873 123.749 196.265C130.916 179.658 140.641 165.211 152.926 152.926C165.211 140.641 179.658 130.916 196.265 123.749C212.873 116.583 230.618 113 249.5 113C268.383 113 286.128 116.583 302.735 123.749C319.343 130.916 333.789 140.641 346.074 152.926C358.359 165.211 368.084 179.658 375.251 196.265C382.417 212.873 386 230.618 386 249.5C386 268.383 382.417 286.128 375.251 302.735C368.084 319.343 358.359 333.789 346.074 346.074C333.789 358.359 319.343 368.084 302.735 375.251C286.128 382.417 268.383 386 249.5 386ZM249.5 358.7C279.985 358.7 305.806 348.121 326.964 326.964C348.121 305.806 358.7 279.985 358.7 249.5C358.7 219.015 348.121 193.194 326.964 172.036C305.806 150.879 279.985 140.3 249.5 140.3C219.015 140.3 193.194 150.879 172.036 172.036C150.879 193.194 140.3 219.015 140.3 249.5C140.3 279.985 150.879 305.806 172.036 326.964C193.194 348.121 219.015 358.7 249.5 358.7Z" fill="black"/>
</svg>
