<svg width="500" height="500" viewBox="0 0 500 500" fill="none" xmlns="http://www.w3.org/2000/svg">
<path d="M250 357.636C219.952 357.636 194.5 347.209 173.645 326.355C152.791 305.5 142.364 280.048 142.364 250C142.364 219.952 152.791 194.5 173.645 173.645C194.5 152.791 219.952 142.364 250 142.364C280.048 142.364 305.5 152.791 326.355 173.645C347.209 194.5 357.636 219.952 357.636 250C357.636 280.048 347.209 305.5 326.355 326.355C305.5 347.209 280.048 357.636 250 357.636ZM250 330.727C272.424 330.727 291.485 322.879 307.182 307.182C322.879 291.485 330.727 272.424 330.727 250C330.727 246.188 330.447 242.432 329.886 238.732C329.326 235.032 328.485 231.388 327.364 227.8C324 228.473 320.636 228.977 317.273 229.314C313.909 229.65 310.545 229.818 307.182 229.818C293.055 229.818 279.6 227.127 266.818 221.745C254.036 216.364 242.6 208.515 232.509 198.2C226.23 210.982 217.597 222.082 206.609 231.5C195.621 240.918 183.176 247.758 169.273 252.018C169.945 273.994 178.074 292.606 193.659 307.855C209.244 323.103 228.024 330.727 250 330.727ZM174.655 221.073C184.521 215.915 192.033 209.917 197.191 203.077C202.348 196.238 207.394 188.109 212.327 178.691C203.806 183.176 196.294 189.062 189.791 196.35C183.288 203.638 178.242 211.879 174.655 221.073ZM216.364 276.909C212.552 276.909 209.356 275.62 206.777 273.041C204.198 270.462 202.909 267.267 202.909 263.455C202.909 259.642 204.198 256.447 206.777 253.868C209.356 251.289 212.552 250 216.364 250C220.176 250 223.371 251.289 225.95 253.868C228.529 256.447 229.818 259.642 229.818 263.455C229.818 267.267 228.529 270.462 225.95 273.041C223.371 275.62 220.176 276.909 216.364 276.909ZM307.182 202.909H311.218C312.564 202.909 313.909 202.797 315.255 202.573C307.855 192.482 298.492 184.409 287.168 178.355C275.844 172.3 263.455 169.273 250 169.273H245.964C244.618 169.273 243.385 169.385 242.264 169.609C251.009 179.7 260.259 187.773 270.014 193.827C279.768 199.882 292.158 202.909 307.182 202.909ZM283.636 276.909C279.824 276.909 276.629 275.62 274.05 273.041C271.471 270.462 270.182 267.267 270.182 263.455C270.182 259.642 271.471 256.447 274.05 253.868C276.629 251.289 279.824 250 283.636 250C287.448 250 290.644 251.289 293.223 253.868C295.802 256.447 297.091 259.642 297.091 263.455C297.091 267.267 295.802 270.462 293.223 273.041C290.644 275.62 287.448 276.909 283.636 276.909ZM102 155.818V128.909C102 121.509 104.635 115.174 109.905 109.905C115.174 104.635 121.509 102 128.909 102H155.818C159.63 102 162.826 103.289 165.405 105.868C167.983 108.447 169.273 111.642 169.273 115.455C169.273 119.267 167.983 122.462 165.405 125.041C162.826 127.62 159.63 128.909 155.818 128.909H128.909V155.818C128.909 159.63 127.62 162.826 125.041 165.405C122.462 167.983 119.267 169.273 115.455 169.273C111.642 169.273 108.447 167.983 105.868 165.405C103.289 162.826 102 159.63 102 155.818ZM155.818 398H128.909C121.509 398 115.174 395.365 109.905 390.095C104.635 384.826 102 378.491 102 371.091V344.182C102 340.37 103.289 337.174 105.868 334.595C108.447 332.017 111.642 330.727 115.455 330.727C119.267 330.727 122.462 332.017 125.041 334.595C127.62 337.174 128.909 340.37 128.909 344.182V371.091H155.818C159.63 371.091 162.826 372.38 165.405 374.959C167.983 377.538 169.273 380.733 169.273 384.545C169.273 388.358 167.983 391.553 165.405 394.132C162.826 396.711 159.63 398 155.818 398ZM371.091 398H344.182C340.37 398 337.174 396.711 334.595 394.132C332.017 391.553 330.727 388.358 330.727 384.545C330.727 380.733 332.017 377.538 334.595 374.959C337.174 372.38 340.37 371.091 344.182 371.091H371.091V330.727H398V371.091C398 378.491 395.365 384.826 390.095 390.095C384.826 395.365 378.491 398 371.091 398ZM371.091 155.818V128.909H344.182C340.37 128.909 337.174 127.62 334.595 125.041C332.017 122.462 330.727 119.267 330.727 115.455C330.727 111.642 332.017 108.447 334.595 105.868C337.174 103.289 340.37 102 344.182 102H371.091C378.491 102 384.826 104.635 390.095 109.905C395.365 115.174 398 121.509 398 128.909V155.818C398 159.63 396.711 162.826 394.132 165.405C391.553 167.983 388.358 169.273 384.545 169.273C380.733 169.273 377.538 167.983 374.959 165.405C372.38 162.826 371.091 159.63 371.091 155.818Z" fill="black"/>
</svg>
