<svg width="500" height="500" viewBox="0 0 500 500" fill="none" xmlns="http://www.w3.org/2000/svg">
<path d="M250 160C248 160 246.25 159.25 244.75 157.75C243.25 156.25 242.5 154.5 242.5 152.5C242.5 150.5 243.25 148.75 244.75 147.25C246.25 145.75 248 145 250 145C252 145 253.75 145.75 255.25 147.25C256.75 148.75 257.5 150.5 257.5 152.5C257.5 154.5 256.75 156.25 255.25 157.75C253.75 159.25 252 160 250 160ZM280 160C278 160 276.25 159.25 274.75 157.75C273.25 156.25 272.5 154.5 272.5 152.5C272.5 150.5 273.25 148.75 274.75 147.25C276.25 145.75 278 145 280 145C282 145 283.75 145.75 285.25 147.25C286.75 148.75 287.5 150.5 287.5 152.5C287.5 154.5 286.75 156.25 285.25 157.75C283.75 159.25 282 160 280 160ZM220 160C218 160 216.25 159.25 214.75 157.75C213.25 156.25 212.5 154.5 212.5 152.5C212.5 150.5 213.25 148.75 214.75 147.25C216.25 145.75 218 145 220 145C222 145 223.75 145.75 225.25 147.25C226.75 148.75 227.5 150.5 227.5 152.5C227.5 154.5 226.75 156.25 225.25 157.75C223.75 159.25 222 160 220 160ZM325 175C323 175 321.25 174.25 319.75 172.75C318.25 171.25 317.5 169.5 317.5 167.5C317.5 165.5 318.25 163.75 319.75 162.25C321.25 160.75 323 160 325 160C327 160 328.75 160.75 330.25 162.25C331.75 163.75 332.5 165.5 332.5 167.5C332.5 169.5 331.75 171.25 330.25 172.75C328.75 174.25 327 175 325 175ZM205 175C203 175 201.25 174.25 199.75 172.75C198.25 171.25 197.5 169.5 197.5 167.5C197.5 165.5 198.25 163.75 199.75 162.25C201.25 160.75 203 160 205 160C207 160 208.75 160.75 210.25 162.25C211.75 163.75 212.5 165.5 212.5 167.5C212.5 169.5 211.75 171.25 210.25 172.75C208.75 174.25 207 175 205 175ZM175 175C173 175 171.25 174.25 169.75 172.75C168.25 171.25 167.5 169.5 167.5 167.5C167.5 165.5 168.25 163.75 169.75 162.25C171.25 160.75 173 160 175 160C177 160 178.75 160.75 180.25 162.25C181.75 163.75 182.5 165.5 182.5 167.5C182.5 169.5 181.75 171.25 180.25 172.75C178.75 174.25 177 175 175 175ZM235 175C233 175 231.25 174.25 229.75 172.75C228.25 171.25 227.5 169.5 227.5 167.5C227.5 165.5 228.25 163.75 229.75 162.25C231.25 160.75 233 160 235 160C237 160 238.75 160.75 240.25 162.25C241.75 163.75 242.5 165.5 242.5 167.5C242.5 169.5 241.75 171.25 240.25 172.75C238.75 174.25 237 175 235 175ZM265 175C263 175 261.25 174.25 259.75 172.75C258.25 171.25 257.5 169.5 257.5 167.5C257.5 165.5 258.25 163.75 259.75 162.25C261.25 160.75 263 160 265 160C267 160 268.75 160.75 270.25 162.25C271.75 163.75 272.5 165.5 272.5 167.5C272.5 169.5 271.75 171.25 270.25 172.75C268.75 174.25 267 175 265 175ZM295 175C293 175 291.25 174.25 289.75 172.75C288.25 171.25 287.5 169.5 287.5 167.5C287.5 165.5 288.25 163.75 289.75 162.25C291.25 160.75 293 160 295 160C297 160 298.75 160.75 300.25 162.25C301.75 163.75 302.5 165.5 302.5 167.5C302.5 169.5 301.75 171.25 300.25 172.75C298.75 174.25 297 175 295 175ZM250 190C248 190 246.25 189.25 244.75 187.75C243.25 186.25 242.5 184.5 242.5 182.5C242.5 180.5 243.25 178.75 244.75 177.25C246.25 175.75 248 175 250 175C252 175 253.75 175.75 255.25 177.25C256.75 178.75 257.5 180.5 257.5 182.5C257.5 184.5 256.75 186.25 255.25 187.75C253.75 189.25 252 190 250 190ZM280 190C278 190 276.25 189.25 274.75 187.75C273.25 186.25 272.5 184.5 272.5 182.5C272.5 180.5 273.25 178.75 274.75 177.25C276.25 175.75 278 175 280 175C282 175 283.75 175.75 285.25 177.25C286.75 178.75 287.5 180.5 287.5 182.5C287.5 184.5 286.75 186.25 285.25 187.75C283.75 189.25 282 190 280 190ZM310 190C308 190 306.25 189.25 304.75 187.75C303.25 186.25 302.5 184.5 302.5 182.5C302.5 180.5 303.25 178.75 304.75 177.25C306.25 175.75 308 175 310 175C312 175 313.75 175.75 315.25 177.25C316.75 178.75 317.5 180.5 317.5 182.5C317.5 184.5 316.75 186.25 315.25 187.75C313.75 189.25 312 190 310 190ZM220 190C218 190 216.25 189.25 214.75 187.75C213.25 186.25 212.5 184.5 212.5 182.5C212.5 180.5 213.25 178.75 214.75 177.25C216.25 175.75 218 175 220 175C222 175 223.75 175.75 225.25 177.25C226.75 178.75 227.5 180.5 227.5 182.5C227.5 184.5 226.75 186.25 225.25 187.75C223.75 189.25 222 190 220 190ZM190 190C188 190 186.25 189.25 184.75 187.75C183.25 186.25 182.5 184.5 182.5 182.5C182.5 180.5 183.25 178.75 184.75 177.25C186.25 175.75 188 175 190 175C192 175 193.75 175.75 195.25 177.25C196.75 178.75 197.5 180.5 197.5 182.5C197.5 184.5 196.75 186.25 195.25 187.75C193.75 189.25 192 190 190 190ZM205 205C203 205 201.25 204.25 199.75 202.75C198.25 201.25 197.5 199.5 197.5 197.5C197.5 195.5 198.25 193.75 199.75 192.25C201.25 190.75 203 190 205 190C207 190 208.75 190.75 210.25 192.25C211.75 193.75 212.5 195.5 212.5 197.5C212.5 199.5 211.75 201.25 210.25 202.75C208.75 204.25 207 205 205 205ZM175 205C173 205 171.25 204.25 169.75 202.75C168.25 201.25 167.5 199.5 167.5 197.5C167.5 195.5 168.25 193.75 169.75 192.25C171.25 190.75 173 190 175 190C177 190 178.75 190.75 180.25 192.25C181.75 193.75 182.5 195.5 182.5 197.5C182.5 199.5 181.75 201.25 180.25 202.75C178.75 204.25 177 205 175 205ZM235 205C233 205 231.25 204.25 229.75 202.75C228.25 201.25 227.5 199.5 227.5 197.5C227.5 195.5 228.25 193.75 229.75 192.25C231.25 190.75 233 190 235 190C237 190 238.75 190.75 240.25 192.25C241.75 193.75 242.5 195.5 242.5 197.5C242.5 199.5 241.75 201.25 240.25 202.75C238.75 204.25 237 205 235 205ZM265 205C263 205 261.25 204.25 259.75 202.75C258.25 201.25 257.5 199.5 257.5 197.5C257.5 195.5 258.25 193.75 259.75 192.25C261.25 190.75 263 190 265 190C267 190 268.75 190.75 270.25 192.25C271.75 193.75 272.5 195.5 272.5 197.5C272.5 199.5 271.75 201.25 270.25 202.75C268.75 204.25 267 205 265 205ZM295 205C293 205 291.25 204.25 289.75 202.75C288.25 201.25 287.5 199.5 287.5 197.5C287.5 195.5 288.25 193.75 289.75 192.25C291.25 190.75 293 190 295 190C297 190 298.75 190.75 300.25 192.25C301.75 193.75 302.5 195.5 302.5 197.5C302.5 199.5 301.75 201.25 300.25 202.75C298.75 204.25 297 205 295 205ZM325 205C323 205 321.25 204.25 319.75 202.75C318.25 201.25 317.5 199.5 317.5 197.5C317.5 195.5 318.25 193.75 319.75 192.25C321.25 190.75 323 190 325 190C327 190 328.75 190.75 330.25 192.25C331.75 193.75 332.5 195.5 332.5 197.5C332.5 199.5 331.75 201.25 330.25 202.75C328.75 204.25 327 205 325 205ZM145 205C143 205 141.25 204.25 139.75 202.75C138.25 201.25 137.5 199.5 137.5 197.5C137.5 195.5 138.25 193.75 139.75 192.25C141.25 190.75 143 190 145 190C147 190 148.75 190.75 150.25 192.25C151.75 193.75 152.5 195.5 152.5 197.5C152.5 199.5 151.75 201.25 150.25 202.75C148.75 204.25 147 205 145 205ZM160 190C158 190 156.25 189.25 154.75 187.75C153.25 186.25 152.5 184.5 152.5 182.5C152.5 180.5 153.25 178.75 154.75 177.25C156.25 175.75 158 175 160 175C162 175 163.75 175.75 165.25 177.25C166.75 178.75 167.5 180.5 167.5 182.5C167.5 184.5 166.75 186.25 165.25 187.75C163.75 189.25 162 190 160 190ZM190 160C188 160 186.25 159.25 184.75 157.75C183.25 156.25 182.5 154.5 182.5 152.5C182.5 150.5 183.25 148.75 184.75 147.25C186.25 145.75 188 145 190 145C192 145 193.75 145.75 195.25 147.25C196.75 148.75 197.5 150.5 197.5 152.5C197.5 154.5 196.75 156.25 195.25 157.75C193.75 159.25 192 160 190 160ZM205 145C203 145 201.25 144.25 199.75 142.75C198.25 141.25 197.5 139.5 197.5 137.5C197.5 135.5 198.25 133.75 199.75 132.25C201.25 130.75 203 130 205 130C207 130 208.75 130.75 210.25 132.25C211.75 133.75 212.5 135.5 212.5 137.5C212.5 139.5 211.75 141.25 210.25 142.75C208.75 144.25 207 145 205 145ZM235 145C233 145 231.25 144.25 229.75 142.75C228.25 141.25 227.5 139.5 227.5 137.5C227.5 135.5 228.25 133.75 229.75 132.25C231.25 130.75 233 130 235 130C237 130 238.75 130.75 240.25 132.25C241.75 133.75 242.5 135.5 242.5 137.5C242.5 139.5 241.75 141.25 240.25 142.75C238.75 144.25 237 145 235 145ZM265 145C263 145 261.25 144.25 259.75 142.75C258.25 141.25 257.5 139.5 257.5 137.5C257.5 135.5 258.25 133.75 259.75 132.25C261.25 130.75 263 130 265 130C267 130 268.75 130.75 270.25 132.25C271.75 133.75 272.5 135.5 272.5 137.5C272.5 139.5 271.75 141.25 270.25 142.75C268.75 144.25 267 145 265 145ZM295 145C293 145 291.25 144.25 289.75 142.75C288.25 141.25 287.5 139.5 287.5 137.5C287.5 135.5 288.25 133.75 289.75 132.25C291.25 130.75 293 130 295 130C297 130 298.75 130.75 300.25 132.25C301.75 133.75 302.5 135.5 302.5 137.5C302.5 139.5 301.75 141.25 300.25 142.75C298.75 144.25 297 145 295 145ZM310 160C308 160 306.25 159.25 304.75 157.75C303.25 156.25 302.5 154.5 302.5 152.5C302.5 150.5 303.25 148.75 304.75 147.25C306.25 145.75 308 145 310 145C312 145 313.75 145.75 315.25 147.25C316.75 148.75 317.5 150.5 317.5 152.5C317.5 154.5 316.75 156.25 315.25 157.75C313.75 159.25 312 160 310 160ZM340 190C338 190 336.25 189.25 334.75 187.75C333.25 186.25 332.5 184.5 332.5 182.5C332.5 180.5 333.25 178.75 334.75 177.25C336.25 175.75 338 175 340 175C342 175 343.75 175.75 345.25 177.25C346.75 178.75 347.5 180.5 347.5 182.5C347.5 184.5 346.75 186.25 345.25 187.75C343.75 189.25 342 190 340 190ZM355 205C353 205 351.25 204.25 349.75 202.75C348.25 201.25 347.5 199.5 347.5 197.5C347.5 195.5 348.25 193.75 349.75 192.25C351.25 190.75 353 190 355 190C357 190 358.75 190.75 360.25 192.25C361.75 193.75 362.5 195.5 362.5 197.5C362.5 199.5 361.75 201.25 360.25 202.75C358.75 204.25 357 205 355 205ZM205 283.75C199.75 283.75 195.313 281.938 191.688 278.312C188.062 274.687 186.25 270.25 186.25 265C186.25 259.75 188.062 255.313 191.688 251.688C195.313 248.062 199.75 246.25 205 246.25C210.25 246.25 214.687 248.062 218.312 251.688C221.938 255.313 223.75 259.75 223.75 265C223.75 270.25 221.938 274.687 218.312 278.312C214.687 281.938 210.25 283.75 205 283.75ZM295 283.75C289.75 283.75 285.313 281.938 281.688 278.312C278.062 274.687 276.25 270.25 276.25 265C276.25 259.75 278.062 255.313 281.688 251.688C285.313 248.062 289.75 246.25 295 246.25C300.25 246.25 304.687 248.062 308.312 251.688C311.938 255.313 313.75 259.75 313.75 265C313.75 270.25 311.938 274.687 308.312 278.312C304.687 281.938 300.25 283.75 295 283.75ZM250 400C229.5 400 210.125 396.062 191.875 388.188C173.625 380.312 157.687 369.562 144.062 355.938C130.438 342.313 119.688 326.375 111.812 308.125C103.938 289.875 100 270.5 100 250C100 229.25 103.938 209.75 111.812 191.5C119.688 173.25 130.438 157.375 144.062 143.875C157.687 130.375 173.625 119.688 191.875 111.812C210.125 103.938 229.5 100 250 100C270.75 100 290.25 103.938 308.5 111.812C326.75 119.688 342.625 130.375 356.125 143.875C369.625 157.375 380.312 173.25 388.188 191.5C396.062 209.75 400 229.25 400 250C400 270.5 396.062 289.875 388.188 308.125C380.312 326.375 369.625 342.313 356.125 355.938C342.625 369.562 326.75 380.312 308.5 388.188C290.25 396.062 270.75 400 250 400ZM250 370C283.5 370 311.875 358.312 335.125 334.938C358.375 311.563 370 283.25 370 250C370 216.5 358.375 188.125 335.125 164.875C311.875 141.625 283.5 130 250 130C216.75 130 188.437 141.625 165.062 164.875C141.688 188.125 130 216.5 130 250C130 283.25 141.688 311.563 165.062 334.938C188.437 358.312 216.75 370 250 370Z" fill="black"/>
</svg>
