<svg width="500" height="500" viewBox="0 0 500 500" fill="none" xmlns="http://www.w3.org/2000/svg">
<path d="M283.611 246.639C278.906 246.639 274.928 245.014 271.679 241.765C268.43 238.516 266.806 234.539 266.806 229.833C266.806 225.128 268.43 221.15 271.679 217.901C274.928 214.652 278.906 213.028 283.611 213.028C288.317 213.028 292.294 214.652 295.543 217.901C298.792 221.15 300.417 225.128 300.417 229.833C300.417 234.539 298.792 238.516 295.543 241.765C292.294 245.014 288.317 246.639 283.611 246.639ZM216.389 246.639C211.683 246.639 207.706 245.014 204.457 241.765C201.208 238.516 199.583 234.539 199.583 229.833C199.583 225.128 201.208 221.15 204.457 217.901C207.706 214.652 211.683 213.028 216.389 213.028C221.094 213.028 225.072 214.652 228.321 217.901C231.57 221.15 233.194 225.128 233.194 229.833C233.194 234.539 231.57 238.516 228.321 241.765C225.072 245.014 221.094 246.639 216.389 246.639ZM250 317.222C236.556 317.222 224.4 313.525 213.532 306.131C202.664 298.736 194.654 288.989 189.5 276.889H310.5C305.346 288.989 297.336 298.736 286.468 306.131C275.6 313.525 263.444 317.222 250 317.222ZM250 371C233.194 371 217.453 367.807 202.776 361.421C188.1 355.035 175.327 346.408 164.46 335.54C153.592 324.673 144.965 311.9 138.579 297.224C132.193 282.547 129 266.806 129 250C129 233.194 132.193 217.453 138.579 202.776C144.965 188.1 153.592 175.327 164.46 164.46C175.327 153.592 188.1 144.965 202.776 138.579C217.453 132.193 233.194 129 250 129C266.806 129 282.547 132.193 297.224 138.579C311.9 144.965 324.673 153.592 335.54 164.46C346.408 175.327 355.035 188.1 361.421 202.776C367.807 217.453 371 233.194 371 250C371 266.806 367.807 282.547 361.421 297.224C355.035 311.9 346.408 324.673 335.54 335.54C324.673 346.408 311.9 355.035 297.224 361.421C282.547 367.807 266.806 371 250 371ZM250 344.111C275.993 344.111 298.176 334.924 316.55 316.55C334.924 298.176 344.111 275.993 344.111 250C344.111 224.007 334.924 201.824 316.55 183.45C298.176 165.076 275.993 155.889 250 155.889H245.967C244.622 155.889 243.278 156.113 241.933 156.561C240.589 157.906 239.693 159.362 239.244 160.931C238.796 162.499 238.572 164.18 238.572 165.972C238.572 170.678 240.197 174.655 243.446 177.904C246.695 181.153 250.672 182.778 255.378 182.778C257.394 182.778 259.243 182.442 260.924 181.769C262.604 181.097 264.341 180.761 266.133 180.761C268.822 180.761 271.063 181.769 272.856 183.786C274.648 185.803 275.544 188.156 275.544 190.844C275.544 195.998 273.136 199.303 268.318 200.76C263.5 202.216 259.187 202.944 255.378 202.944C245.294 202.944 236.612 199.303 229.329 192.021C222.047 184.738 218.406 176.056 218.406 165.972V163.956C218.406 163.283 218.518 162.387 218.742 161.267C200.144 167.989 185.019 179.305 173.367 195.214C161.715 211.123 155.889 229.385 155.889 250C155.889 275.993 165.076 298.176 183.45 316.55C201.824 334.924 224.007 344.111 250 344.111Z" fill="black"/>
</svg>
