<svg width="500" height="500" viewBox="0 0 500 500" fill="none" xmlns="http://www.w3.org/2000/svg">
<path d="M235.919 114C249.99 114 263.726 116.161 277.127 120.484C290.528 124.806 302.812 130.949 313.98 138.911C317.106 141.186 318.893 144.201 319.34 147.954C319.787 151.708 318.782 155.064 316.325 158.021C313.868 161.206 310.741 163.026 306.944 163.481C303.147 163.936 299.685 162.913 296.558 160.41C288.518 154.04 279.081 149.263 268.249 146.078C257.416 142.893 246.639 141.3 235.919 141.3C213.807 141.3 194.766 147.215 178.797 159.045C162.827 170.875 150.152 185.094 140.771 201.701C138.984 205.114 136.36 207.503 132.898 208.868C129.436 210.233 126.03 210.119 122.68 208.526C119.106 206.706 116.761 203.976 115.644 200.336C114.528 196.696 114.863 193.17 116.649 189.758C128.04 168.372 143.842 150.4 164.056 135.84C184.269 121.28 208.223 114 235.919 114ZM234.913 387C210.122 387 187.396 380.232 166.736 366.696C146.076 353.159 129.492 335.358 116.984 313.29C115.198 309.878 114.751 306.238 115.644 302.37C116.538 298.503 118.548 295.545 121.675 293.498C124.802 291.45 128.152 290.938 131.726 291.962C135.299 292.986 137.979 295.09 139.766 298.275C149.817 316.248 163.106 330.978 179.634 342.467C196.162 353.956 214.589 359.7 234.913 359.7C265.066 359.7 290.751 349.008 311.969 327.623C333.188 306.238 343.797 280.416 343.797 250.159C343.35 246.519 344.579 243.334 347.482 240.604C350.386 237.874 353.624 236.623 357.198 236.85C361.665 237.078 364.959 238.443 367.081 240.945C369.203 243.448 370.376 246.746 370.599 250.841C370.599 269.724 367.081 287.469 360.046 304.076C353.01 320.684 343.35 335.13 331.066 347.415C318.782 359.7 304.376 369.369 287.848 376.421C271.32 383.474 253.675 387 234.913 387ZM188.345 216.034L180.974 223.541C178.964 225.589 178.015 227.978 178.127 230.708C178.238 233.438 179.299 235.826 181.309 237.874C183.32 239.921 185.665 240.945 188.345 240.945C191.025 240.945 193.37 239.921 195.38 237.874L207.106 225.93C209.787 223.2 211.127 220.015 211.127 216.375C211.127 212.735 209.787 209.55 207.106 206.82L195.045 194.535C193.259 192.715 190.913 191.805 188.01 191.805C185.106 191.805 182.761 192.715 180.974 194.535C178.964 196.583 177.959 198.971 177.959 201.701C177.959 204.431 178.964 206.82 180.974 208.868L188.345 216.034ZM357.198 209.55C349.827 209.55 343.518 206.877 338.269 201.531C333.02 196.184 330.396 189.758 330.396 182.25C330.396 174.06 332.853 165.984 337.766 158.021C342.68 150.059 347.259 142.779 351.502 136.181C352.173 135.044 353.01 134.248 354.015 133.793C355.02 133.338 356.081 133.11 357.198 133.11C358.315 133.11 359.376 133.338 360.381 133.793C361.386 134.248 362.223 135.044 362.893 136.181C367.137 142.779 371.716 150.059 376.629 158.021C381.543 165.984 384 174.06 384 182.25C384 189.758 381.376 196.184 376.127 201.531C370.878 206.877 364.568 209.55 357.198 209.55ZM285.167 216.034L292.203 208.868C294.213 206.82 295.218 204.431 295.218 201.701C295.218 198.971 294.213 196.583 292.203 194.535C290.193 192.488 287.848 191.464 285.167 191.464C282.487 191.464 280.142 192.488 278.132 194.535L266.071 206.82C263.391 209.55 262.051 212.735 262.051 216.375C262.051 220.015 263.391 223.2 266.071 225.93L278.132 238.215C280.142 240.263 282.543 241.229 285.335 241.116C288.127 241.002 290.528 239.921 292.538 237.874C294.548 235.826 295.553 233.381 295.553 230.537C295.553 227.693 294.548 225.248 292.538 223.2L285.167 216.034ZM184.66 318.75C186.223 318.75 187.842 318.295 189.517 317.385C191.193 316.475 192.477 315.338 193.37 313.973C198.284 307.148 204.426 301.688 211.797 297.593C219.167 293.498 227.431 291.45 236.589 291.45C245.746 291.45 254.01 293.498 261.381 297.593C268.751 301.688 274.893 307.148 279.807 313.973C280.7 315.338 281.929 316.475 283.492 317.385C285.056 318.295 286.619 318.75 288.183 318.75C292.203 318.75 295.162 316.93 297.061 313.29C298.959 309.65 298.568 305.783 295.888 301.688C290.081 292.815 281.929 285.478 271.431 279.677C260.934 273.876 249.32 270.975 236.589 270.975C230.781 270.975 225.086 271.601 219.502 272.852C213.919 274.103 208.67 275.98 203.756 278.483L156.182 250.5C156.182 246.86 155.289 243.448 153.502 240.263C151.715 237.078 149.259 234.575 146.132 232.755C141.218 230.025 136.137 229.399 130.888 230.878C125.639 232.357 121.563 235.485 118.66 240.263C115.979 245.268 115.365 250.443 116.817 255.789C118.269 261.136 121.34 265.288 126.03 268.245C129.157 270.065 132.507 270.975 136.081 270.975C139.654 270.975 143.005 270.065 146.132 268.245L185.665 291.45C183.878 293.27 182.314 295.09 180.974 296.91L176.954 302.37C174.497 306.238 174.218 309.934 176.116 313.461C178.015 316.987 180.863 318.75 184.66 318.75Z" fill="black"/>
</svg>
